<?xml version="1.0" encoding="UTF-8"?><svg id="_圖層_2" xmlns="http://www.w3.org/2000/svg" viewBox="0 0 30.69 31.31"><defs><style>.cls-1{fill:#fff;}</style></defs><g id="_圖層_1-2"><path class="cls-1" d="M16.38,31.31c-.51,0-1.02-.14-1.48-.42l-2.4-1.47c-.24-.15-.52-.21-.81-.19l-2.81.23c-1.23.09-2.38-.6-2.85-1.74l-1.08-2.6c-.11-.26-.3-.48-.54-.63l-2.4-1.47c-1.06-.64-1.57-1.88-1.28-3.09l.65-2.74c.07-.28.04-.56-.07-.83L.22,13.77c-.47-1.14-.16-2.45.77-3.25l2.14-1.83c.22-.19.37-.43.43-.71l.65-2.74c.29-1.2,1.31-2.08,2.54-2.17l2.81-.23c.28-.02.55-.13.77-.32l2.14-1.83c.94-.8,2.27-.91,3.33-.27l2.4,1.47c.24.15.52.22.81.19l2.81-.23c1.24-.1,2.38.6,2.85,1.74l1.08,2.6c.11.26.3.48.54.63l2.4,1.47c1.05.64,1.57,1.88,1.28,3.09l-.65,2.74c-.07.28-.04.56.07.83l1.08,2.6c.47,1.14.16,2.45-.77,3.25l-2.14,1.83c-.22.19-.37.43-.43.71l-.65,2.74c-.29,1.2-1.31,2.08-2.54,2.17l-2.81.23c-.29.02-.55.13-.77.32l-2.14,1.83c-.53.45-1.19.69-1.85.69ZM11.8,27.73c.52,0,1.03.14,1.48.42l2.4,1.47c.5.3,1.13.25,1.57-.13l2.14-1.83c.46-.39,1.02-.63,1.62-.68l2.81-.23c.58-.05,1.06-.46,1.2-1.03l.65-2.74c.14-.59.46-1.11.92-1.5l2.14-1.83c.44-.38.59-1,.37-1.54l-1.08-2.6c-.23-.56-.28-1.16-.14-1.75l.65-2.74c.14-.57-.11-1.15-.61-1.46l-2.4-1.47c-.52-.32-.91-.78-1.14-1.33l-1.08-2.6c-.22-.54-.76-.86-1.35-.82l-2.81.23c-.6.05-1.19-.09-1.71-.41l-2.4-1.47c-.5-.3-1.13-.25-1.57.13l-2.14,1.83c-.46.39-1.02.63-1.62.68l-2.81.23c-.58.05-1.06.46-1.2,1.03l-.65,2.74c-.14.59-.46,1.11-.91,1.5l-2.14,1.83c-.44.38-.59,1-.37,1.54l1.08,2.6c.23.56.28,1.16.14,1.75l-.65,2.74c-.14.57.11,1.15.61,1.46l2.4,1.47c.52.32.91.78,1.14,1.33l1.08,2.6c.22.54.77.86,1.35.82l2.81-.23c.08,0,.15,0,.23,0Z"/><polygon class="cls-1" points="13.19 23.52 6.99 17.11 8.07 16.06 13.03 21.19 21.81 9.07 23.02 9.95 13.19 23.52"/></g></svg>