<?xml version="1.0" encoding="UTF-8"?><svg id="_圖層_2" xmlns="http://www.w3.org/2000/svg" viewBox="0 0 205 205"><defs><style>.cls-1{fill:none;}.cls-2{fill:#425f4c;}</style></defs><g id="_圖層_1-2"><path class="cls-2" d="M99.81,193.17c-4.44,0-8.88-1.86-12.85-5.39-6.28-5.58-10.03-12.76-12.88-19.05-1.64-3.62-2.78-6.64-3.61-9.51-.74-2.57-2.4-3.1-3.66-3.1-.42,0-.88.06-1.42.18-6.46,1.45-12.4,2.15-18.16,2.15-.93,0-1.87-.02-2.8-.06-6.4-.26-11.33-1.41-15.53-3.61-6.39-3.34-9.78-8.57-9.82-15.1.07-8.31,3.24-14.79,6.33-20.03,3-5.09,6.55-9.82,10.54-14.07,1.9-2.02,1.9-4.03,0-6.14-7.28-8.09-12.01-15.41-14.88-23.05-1.86-4.93-2.42-9.35-1.74-13.49,1.07-6.45,4.91-10.91,11.73-13.64,1.86-.74,2.93-1.9,3.45-3.76,1.08-3.82,4.34-6.5,8.32-6.82.24-.02.47-.03.71-.03,3.61,0,6.94,2.2,8.49,5.6.8,1.75,2.02,2.66,3.83,2.87,2.9.33,6.27.74,9.49,1.59.54.14,1.03.21,1.47.21,1.77,0,2.99-1.04,3.64-3.1,2.11-6.65,4.86-12.81,8.16-18.34,2.54-4.25,5.36-7.68,8.61-10.49,3.89-3.37,8.25-5.15,12.61-5.15,4.63,0,9.27,2.01,13.4,5.8,4.68,4.3,8.4,9.82,12.08,17.93,1.67,3.67,2.99,7.12,4.04,10.54.71,2.31,2.24,2.79,3.4,2.79.35,0,.73-.04,1.15-.13,7.04-1.51,12.93-2.21,18.52-2.21,1,0,2.01.02,2.99.07,7.17.34,12.32,1.67,16.69,4.3,5.59,3.36,8.39,8.3,8.59,15.11.06,2.02.74,3.52,2.22,4.84,3.04,2.72,3.91,6.94,2.21,10.75-1.43,3.23-4.92,5.49-8.49,5.49-.25,0-.5-.01-.75-.03-.16-.01-.32-.02-.47-.02-1.88,0-2.85,1.1-3.41,1.93-3.05,4.48-5.6,7.71-8.28,10.49-1.3,1.35-2.36,3.49.01,6.07,5.49,5.96,9.71,11.98,12.9,18.4,2.6,5.24,3.88,9.75,4.03,14.18.25,7.94-3.6,13.93-11.16,17.32-3.76,1.69-7.98,2.59-13.68,2.93-.09,0-.18,0-.27,0-1.32,0-1.35-.54-1.38-.86-.03-.43.1-.58.15-.62.23-.25.77-.42,1.46-.44,3.48-.14,6.81-.67,9.91-1.58,10.16-3,14.73-10.65,12.52-20.96-1.63-7.64-5.62-13.94-9.31-19.1-1.85-2.59-3.98-5.23-6.7-8.31-.29-.33-1.17-1.33-2.55-1.33-1.27,0-2.13.86-2.42,1.14-5.6,5.56-11.79,10.78-18.94,15.96-1.59,1.15-1.94,2.66-2.08,3.84-1.03,9.08-2.47,17.05-4.4,24.37-.27,1.01-.16,1.89.3,2.62.71,1.11,1.96,1.33,2.43,1.41,1.43.25,6.57,1.15,6.57,1.15.16.03.33.05.49.08.19.03.39.05.57.1.52.14,1.09.49,1.01,1.02-.08.51-.45.82-.99.82-.07,0-.14,0-.22-.02-2.81-.38-5.25-.81-7.45-1.31-.61-.14-1.11-.21-1.57-.21-1.32,0-3.05.57-3.79,3.29-.56,2.06-1.37,4.06-2.24,6.17l-.29.72c-.45,1.11-.89,2.82.53,4.73,2.31,3.12,2.64,6.29,1.01,9.69-1.55,3.24-4.27,5.01-8.3,5.39h-.11c-.73-.22-1.44-.34-2.14-.34-2.36,0-4.13,1.31-5.74,2.65-3.74,3.11-7.91,4.75-12.05,4.75ZM99.83,145.23c-.72,0-1.42.16-2.16.49-7.64,3.41-15.36,6.21-22.95,8.33-.79.22-1.91.64-2.49,1.75-.58,1.11-.29,2.24-.02,3,1.57,4.45,3.46,9.6,6.08,14.42,2.8,5.15,6.13,10.46,11.46,14.41,3.26,2.42,6.71,3.64,10.24,3.64,4.02,0,7.96-1.65,11.38-4.77,2.06-1.87,1.22-3.7.54-4.62-.98-1.33-1.48-2.96-1.68-5.47-.1-2.09.8-4.32,2.46-6.06,1.85-1.94,4.37-3.05,6.92-3.05.43,0,.85.03,1.28.09.32.05.6.07.86.07,1.18,0,2.74-.46,3.48-2.64.6-1.76,1.4-4.07,2.29-6.38.15-.38.59-1.53,0-2.69-.59-1.16-1.82-1.5-2.23-1.61-7.6-2.08-15.22-4.83-23.29-8.41-.76-.34-1.48-.5-2.2-.5ZM119.71,169.22c-4.12,0-7.49,3.33-7.52,7.43-.01,2,.76,3.89,2.18,5.33,1.42,1.43,3.3,2.22,5.29,2.23,4.15,0,7.51-3.35,7.52-7.48,0-4.19-3.26-7.49-7.43-7.51h-.04ZM40,105.17c-.95,0-1.81.47-2.56,1.38-.59.72-1.19,1.43-1.79,2.13-.79.93-1.61,1.89-2.39,2.88-4.7,6-9.33,12.67-11.4,20.86-2.9,11.51,1.24,19.07,12.32,22.47,3.53,1.08,7.35,1.58,12.03,1.58.47,0,.93,0,1.41-.01.24,0,.57,0,.89,0,5.5,0,11-.9,16.13-1.87,1.02-.19,2.16-.54,2.83-1.6.69-1.08.5-2.28.26-3.21-2.01-7.75-3.41-15.65-4.17-23.46-.11-1.13-.45-2.78-2.15-4.03-7.31-5.37-13.51-10.6-18.95-15.97-.29-.29-1.18-1.16-2.45-1.16ZM130.74,127.57c-7.02,4.72-14.39,8.99-24.62,14.3l-3.77,1.95,3.9,1.66c6.78,2.88,13.27,5.16,19.85,6.95.37.1.71.15,1.04.15,1.37,0,2.41-.85,2.79-2.27,1.84-7.08,3.12-13.9,3.91-20.85l.49-4.3-3.59,2.41ZM66.55,128.46c-.8,1.27-.63,2.33-.54,2.9l.02.1c1.01,6.75,2.15,12.65,3.48,18.03.62,2.51,2.14,3.04,3.3,3.04h0c.46,0,.95-.08,1.56-.26,5.85-1.71,11.69-3.74,17.86-6.22,1.58-.56,1.97-1.7,2.02-2.56l.08-1.33-1.2-.59c-7.86-3.88-15.87-8.49-23.8-13.71l-1.7-1.12-1.09,1.73ZM99.86,62.79c-.82,0-1.63.2-2.47.6-10.55,5.05-20.83,11-30.54,17.68-1.25.86-1.89,1.99-2.02,3.55-.99,11.84-.99,23.9,0,35.83.12,1.49.76,2.6,1.94,3.41,9.89,6.81,20.28,12.82,30.87,17.84.78.37,1.52.55,2.26.55h0c.69,0,1.38-.16,2.05-.48,11.06-5.3,21.45-11.3,30.87-17.84,1.19-.83,1.85-1.98,2.02-3.52.65-6.02.7-11.95.7-19.08.08-3.75-.14-8.42-.38-13.36l-.07-1.4c-.14-2.91-1.31-5-3.69-6.57-9.56-6.33-19.33-11.92-29.03-16.61-.85-.41-1.67-.61-2.51-.61ZM137.01,88.29c.61,8.65.62,17.44.06,28.48l-.22,4.32,3.43-2.63c6.19-4.74,11.29-9.13,16.04-13.82.83-.82.99-1.65.99-2.2-.02-1.22-.84-1.98-1.28-2.39,0,0-1.17-1.1-1.72-1.62-1.45-1.38-2.95-2.8-4.5-4.14-2.91-2.52-5.92-5.13-9.66-7.77l-3.44-2.43.29,4.2ZM59.99,86.56c-.17.06-.3.1-.4.13-.28.08-.62.19-.98.46-4.62,3.48-9.3,7.52-15.17,13.09-.72.68-1.07,1.44-1.07,2.25.01,1.24.85,2,1.3,2.41.97.88,1.93,1.78,2.89,2.68,1.52,1.42,3.09,2.89,4.7,4.3,2.68,2.34,5.16,4.45,8.26,6.55l3.37,2.28-.26-4.07c-.62-9.74-.61-18.91,0-28.05l.2-3.02-2.86,1ZM32.61,50.88c-.16,0-.33.01-.51.04l-.15.02-.15.05c-.27.08-.47.14-.66.23-6,2.63-9.25,6.61-9.95,12.16-.44,3.5-.1,7.02,1.01,10.49,3.14,9.78,9.25,17.66,15.39,24.73.71.82,1.53,1.24,2.42,1.24,1.12,0,1.92-.66,2.42-1.15,5.46-5.39,11.66-10.62,18.95-15.98,1.28-.94,2-2.17,2.14-3.66.75-7.9,2.2-16.09,4.32-24.35.11-.41.43-1.67-.31-2.8-.73-1.12-1.98-1.33-2.39-1.39-2.05-.34-4.11-.69-6.16-1.05l-2.36-.41c-.31-.05-.61-.08-.89-.08-.94,0-2.64.33-3.55,2.52-1.55,3.72-4.32,5.72-8.24,5.94-.21.01-.42.02-.63.02-3.38,0-6.06-1.58-7.96-4.69l-.07-.12c-.28-.48-1.02-1.74-2.68-1.74ZM151.42,48.52c-6.07,0-11.95,1-16.89,1.97-.57.11-1.76.35-2.44,1.44-.45.71-.54,1.57-.28,2.55,1.92,7.26,3.37,15.29,4.42,24.53.19,1.63.92,2.86,2.31,3.88,7.12,5.2,13.13,10.27,18.38,15.49.64.64,1.54,1.38,2.75,1.38,1.49,0,2.45-1.13,2.77-1.51,2.52-2.97,5.18-6.19,7.59-9.65,1.08-1.55,1.03-3-.18-4.43-2.48-2.95-3.26-6.44-2.15-9.59,1.12-3.16,3.94-5.41,7.76-6.15,3.78-.74,3.34-3.72,3.2-4.7-.87-6.04-4.56-10.37-10.95-12.87-4.04-1.58-8.51-2.35-13.66-2.35-.52,0-1.04,0-1.55.02-.29,0-.68-.01-1.06-.01ZM176.58,70.24c-4.29,0-7.41,3.13-7.42,7.45-.01,4.19,3.24,7.49,7.41,7.53h0c1.99,0,3.91-.81,5.34-2.23,1.43-1.42,2.26-3.34,2.26-5.26,0-4.11-3.39-7.47-7.55-7.49h-.03ZM72.99,52.64c-2.81,0-3.37,2.39-4.02,5.15-1.45,6.18-2.45,11.81-3.13,17.72l-.5,4.27,3.59-2.37c7.88-5.2,15.92-9.85,24.58-14.2l3.38-1.7-3.31-1.84c-.21-.11-.37-.21-.5-.29-.34-.2-.58-.32-.81-.42-5.72-2.33-10.89-4.16-15.81-5.59-1.47-.43-2.52-.74-3.46-.74ZM127.11,52.42c-.53,0-1,.13-1.41.24-4.11,1.13-8.32,2.5-12.57,4.1-1.44.54-2.87,1.11-4.48,1.74l-2.42.95-4.13,1.62,3.94,2.02c9.59,4.92,17.35,9.41,24.4,14.12l1.99,1.33.95-2.2.06-.13c.12-.23.36-.71.29-1.37-.66-6.02-1.85-12.35-3.74-19.92-.58-2.33-2.37-2.51-2.9-2.51ZM99.93,13.72c-3.72,0-7.39,1.42-10.89,4.21-1.73,1.38-3.33,2.98-4.77,4.75-6.14,7.58-9.58,16.29-12.13,23.8-.13.4-.54,1.6.08,2.77.62,1.17,1.85,1.51,2.25,1.62,7.73,2.15,15.45,4.95,23.61,8.56.62.27,1.2.41,1.78.41h0c.53,0,1.05-.11,1.56-.33,8.76-3.84,16.65-6.69,24.12-8.72,2.45-.66,2.42-2.52,2.3-3.29l-.03-.17-.13-.36c-.05-.14-.12-.32-.17-.5-1.43-4.49-3.04-8.52-4.91-12.33-2.34-4.75-5.73-10.83-11.21-15.64-3.62-3.17-7.47-4.78-11.45-4.78ZM43.47,40.6c-4.18,0-7.48,3.27-7.5,7.45-.02,4.1,3.33,7.49,7.47,7.55h0c2.06,0,3.92-.79,5.33-2.23,1.4-1.43,2.18-3.31,2.18-5.29,0-4.25-3.21-7.46-7.46-7.47h-.02Z"/><path class="cls-2" d="M99.76,123.36c-6.9-.03-12.58-5.61-12.65-12.44-.03-2.43-1.01-3.92-3.28-4.98-3.27-1.53-5.77-4.37-6.86-7.81-1.06-3.36-.7-6.86,1.01-9.83.51-.88.84-.88.98-.88.08,0,.17.01.27.03.33.07.61.18.72.85.02.12-.2.55-.33.82-.1.2-.2.41-.29.61-2.43,5.55-.3,11.77,4.96,14.47.57.29,1.35.63,2.23.63,1.26,0,2.33-.65,3.18-1.93,1.24-1.86,2.99-3.22,5.2-4.05,2.07-.77,2.96-2.18,2.79-4.42-.08-1.09.23-2.35.48-3.2.5-1.75.08-3.23-1.28-4.55-1.77-1.71-3.92-2.74-6.39-3.07-.88-.12-1.37-.4-1.54-.62-.04-.05-.13-.17-.08-.5.04-.24.13-.8,1.34-.8.22,0,.45.02.7.06,2.63.43,4.75,1.38,6.46,2.9.29.26,1.18,1.05,2.45,1.05,1.09,0,1.91-.57,2.44-1,2.56-2.08,5.26-3.13,8.03-3.13,1.8,0,3.68.45,5.57,1.33,4.62,2.15,7.11,5.96,7.42,11.32.27,4.79-2.93,9.76-7.62,11.81-2.19.96-3.17,2.42-3.16,4.74,0,3.34-1.29,6.49-3.66,8.86-2.41,2.41-5.62,3.74-9.04,3.74h-.06ZM99.74,99.6c-2.82,0-5.49,1.12-7.52,3.15-2.08,2.09-3.23,4.87-3.22,7.83.01,6.18,4.69,10.84,10.89,10.84,2.99,0,5.74-1.15,7.79-3.22,2.04-2.06,3.14-4.82,3.11-7.76-.06-5.88-4.93-10.74-10.87-10.84h-.18ZM110.67,83.58c-5.87,0-10.54,4.15-11.09,9.87-.32,3.31,1.52,4.38,3.11,4.7,3.03.61,5.57,2.31,7.54,5.05.97,1.35,2.11,1.64,2.89,1.64h0c.61,0,1.22-.16,1.92-.51,3.77-1.9,6.07-5.11,6.32-8.81v-.12c.04-6.5-4.15-11.46-9.96-11.8-.25-.01-.49-.02-.74-.02Z"/><rect class="cls-1" width="205" height="205"/></g></svg>