<?xml version="1.0" encoding="UTF-8"?><svg id="_圖層_2" xmlns="http://www.w3.org/2000/svg" viewBox="0 0 205 205"><defs><style>.cls-1{fill:none;}.cls-2{fill:#425f4c;stroke:#fff;stroke-miterlimit:10;stroke-width:.5px;}</style></defs><g id="_圖層_1-2"><path class="cls-2" d="M170.38,196.68c-1.45,0-2.94-.06-4.39-.12-1.38-.05-2.8-.11-4.22-.12-7.53-.04-15.05-.07-22.58-.09-5.1-.02-10.2-.04-15.31-.06-.91,0-1.84-.06-2.77-.17-2.5-.29-5.52-1.54-5.74-5.8-.17-3.28-.12-6.55.15-9.73.33-3.86,2.52-5.88,6.51-6.01,3.98-.13,4.83-1.03,4.83-5.05v-6.98c-.01-5.55-.02-11.11.02-16.66.02-3.23.51-6.35,1.44-9.26,1.08-3.35,2.88-6.07,5.51-8.32l1.77-1.51c7.26-6.19,14.76-12.59,21.35-19.87,1.79-1.98,4.24-3.07,6.9-3.07s5.17,1.04,7.16,2.94c.21.2,1.47,1.37,1.47,1.37.38.35.87.54,1.37.54.27,0,.54-.05.8-.17.73-.32,1.2-1.04,1.2-1.83v-4.37c0-3.37-.02-6.74-.02-10.12-.02-8.11-.05-16.5-.02-24.75.02-4.78.87-8.81,2.61-12.33,2.09-4.23,5.3-6.47,9.29-6.47.82,0,1.68.1,2.56.29,4.91,1.08,8.43,5.46,8.57,10.67.12,4.39.22,8.79.32,13.18.17,7.24.35,14.72.58,22.08.07,2.18.14,4.37.22,6.55.23,6.9.48,14.03.59,21.05.11,6.54-2.18,12.05-7.01,16.84-6.6,6.55-13.18,13.13-19.75,19.71l-6.38,6.38c-.71.7-1.67,1.65-1.88,3.3-.25,1.98-.35,3.59.69,4.81,1.04,1.22,2.63,1.38,4.6,1.45,4.59.17,6.83,2.46,6.83,6.98,0,2.6,0,5.2-.03,7.8-.04,4.48-2.42,6.87-6.87,6.9h-.37ZM126.32,193.31c1.83,0,3.66.02,5.48.03l4.42.04c11.15.1,22.68.21,34.01.36h.13c.93,0,2.27-.12,3.26-1.14.74-.76,1.07-1.81,1.02-3.21-.08-2.16-.07-4.47.04-7.05.06-1.4-.28-2.45-1.02-3.22-1-1.05-2.39-1.17-3.35-1.17-2.17,0-8.92,0-8.92,0-9.91,0-21.15,0-32.26-.37h-4.03c-.87.01-1.74,0-2.6-.01h-.15c-1.26,0-2.27.37-2.99,1.1-.73.74-1.09,1.78-1.07,3.09.05,2.84.04,5.16-.02,7.32-.03,1.32.32,2.37,1.05,3.11.75.77,1.79,1.14,3.18,1.14h.13c1.23-.02,2.45-.03,3.68-.03ZM141.95,174.88c3.21,0,6.41.01,9.62.03l6.48.02c1.41,0,2.75,0,3.7-1.04.98-1.07.85-2.5.72-4.01-.22-2.52.55-4.33,2.75-6.47,4.83-4.7,9.67-9.54,14.34-14.23,3.82-3.83,7.77-7.79,11.69-11.64,4.51-4.43,6.59-9.56,6.34-15.68-.28-7.05-.47-14.24-.65-21.18-.06-2.48-.13-4.96-.2-7.43-.31-11.15-.61-22.3-.9-33.45-.11-4.16-2.4-7.06-6.29-7.96-.55-.13-1.09-.19-1.63-.19-2.77,0-5.16,1.63-6.74,4.59-1.49,2.79-2.27,6.02-2.31,9.61-.06,4.61-.04,9.29-.03,13.82,0,1.88,0,3.77,0,5.65,0,.07,0,.14.01.21v5.31c-.01,4.24-.02,8.49,0,12.73.03,4.86-1.42,9.16-4.42,13.14-4.2,5.57-9.37,10.49-14.37,15.25-1.1,1.05-2.21,2.1-3.3,3.16-.36.35-.75.42-1.01.42-.36,0-.71-.13-.97-.38-.58-.54-.59-1.31-.03-2.01.48-.6,1.08-1.17,1.72-1.77.21-.2.43-.4.64-.61.8-.78,1.61-1.55,2.42-2.32,3.23-3.09,6.57-6.29,9.53-9.83,2.72-3.25,2.55-7.34-.39-9.95-1.28-1.13-2.92-1.75-4.63-1.75-2.04,0-4.01.9-5.4,2.47-5.63,6.37-12.32,12.56-20.45,18.94-5.75,4.51-8.48,10.45-8.35,18.16.15,8.28.08,16.73,0,24,0,.95.09,2.33,1.08,3.32.98.99,2.32,1.1,3.25,1.1,2.65-.02,5.21-.03,7.77-.03Z"/><path class="cls-2" d="M34.34,196.68c-4.6-.02-6.94-2.37-6.96-6.99-.01-2.67-.02-5.33,0-8,.02-4.06,1.99-6.23,6.04-6.66h.14c.22,0,.54-.01.91-.1.2,0,.39.03.57.05.33.03.65.06.96.06,2.41,0,3.09-1.76,3.27-2.51.27-1.11,1.08-4.48-1.74-7.24-3.82-3.75-7.66-7.6-11.37-11.33-4.59-4.61-9.33-9.37-14.08-13.98-5.47-5.31-7.89-11.2-7.61-18.54.32-8.38.5-16.9.68-25.14.1-4.38.19-8.76.3-13.13.14-5.47.31-10.94.48-16.41l.23-7.4c.17-5.79,5.21-10.68,10.99-10.68.78,0,1.57.09,2.34.27,2.9.69,5.11,2.47,6.73,5.46,1.99,3.66,2.97,7.96,3,13.16.03,7.57.01,15.28,0,22.73-.01,4.18-.02,8.36-.02,12.54,0,.19,0,.39,0,.58-.02.99-.05,2.22.41,3.68.22.68.78,1.19,1.47,1.35.14.03.29.05.43.05.55,0,1.09-.23,1.47-.64,2.42-2.62,4.96-3.9,7.77-3.9.82,0,1.68.11,2.57.32,2.08.5,3.71,1.4,4.82,2.67,6.98,7.99,15.03,14.79,21.98,20.39,5.3,4.27,7.84,10.01,8.02,18.08.18,8.43.1,16.77,0,24.59-.01,1.09.1,2.47,1.11,3.5,1,1.02,2.37,1.15,3.45,1.15h.14c4.15,0,6.34,1.98,6.7,6.06.26,2.94.31,6.15.15,9.54-.16,3.34-2.18,5.43-5.7,5.89-1.53.2-3.06.23-4.35.23-.59,0-1.17,0-1.76-.01-.6,0-1.2-.01-1.8-.01h-.45c-5.52.04-11.03.05-16.55.07-5.17.01-10.35.03-15.52.06-1.47,0-2.95.06-4.38.12-1.51.06-3.08.12-4.6.12h-.21ZM34.8,177.95c-.99,0-2.42.12-3.44,1.19-.75.79-1.09,1.87-1.02,3.31.1,2.11.1,4.42.03,7.06-.04,1.35.3,2.38,1.03,3.13,1.09,1.12,2.63,1.12,3.14,1.12l4.98-.09c2.66-.05,5.32-.1,7.98-.14,8-.12,16.15-.14,24.03-.16,3.53,0,7.06-.02,10.6-.03,3.48-.02,4.6-1.15,4.62-4.66,0-1.03,0-2.06,0-3.09,0-1.3-.01-2.61,0-3.91.01-1.27-.35-2.28-1.07-3.01-.71-.72-1.69-1.08-2.91-1.08-1,.01-1.91.02-2.86.02h-4.68c-.6-.05-1.23-.06-1.87-.06-1.46,0-2.97.08-4.56.16-1.61.08-3.27.17-4.9.17-3.81,0-7.62.02-11.43.04-4.78.02-9.57.05-14.35.05,0,0-3.27,0-3.27,0ZM17.25,51.61c-.67,0-1.37.1-2.07.29-3.64,1-5.89,3.8-6.01,7.47-.08,2.49-.17,4.98-.26,7.47-.17,4.77-.35,9.71-.47,14.57-.15,5.55-.27,11.09-.4,16.64-.18,7.87-.36,16.02-.6,24.02-.18,6.03,1.85,11.03,6.2,15.31,3.6,3.53,7.22,7.17,10.71,10.68,4.71,4.73,9.58,9.63,14.47,14.34,2.72,2.62,4.29,4.92,3.71,8.31-.26,1.52.22,2.48.67,3.02.68.81,1.72,1.22,3.08,1.22,6.46-.05,13.11-.07,20.37-.07h4.73c.45,0,1.8,0,2.79-.99.99-1,.98-2.35.98-2.8-.02-3.16-.01-6.33,0-9.49,0-5.9.02-12-.11-18.01-.11-5.4-1.9-9.65-5.33-12.63-1.58-1.37-3.16-2.73-4.75-4.1-6.47-5.54-13.16-11.28-18.87-17.76-1.23-1.4-3.07-2.2-5.05-2.2-1.68,0-3.28.56-4.5,1.59-2.92,2.46-3.34,6.28-1.04,9.5,1,1.4,2.18,2.64,3.1,3.57,1.79,1.81,3.59,3.6,5.4,5.39,1.99,1.98,3.98,3.95,5.94,5.94.28.29,1.13,1.29.24,2.2-.27.28-.58.42-.91.42-.41,0-.88-.22-1.3-.62-6-5.69-10.46-10.17-14.48-14.53-5.42-5.89-7.84-12.24-7.38-19.42.23-3.57.17-7.18.11-10.67-.02-1.5-.05-3.01-.05-4.51,0-.06,0-.12,0-.18,0-1.93,0-3.86.01-5.79.01-4.62.03-9.39-.04-14.09-.06-4.11-.92-7.46-2.64-10.24-1.97-3.19-4.49-3.86-6.26-3.86Z"/><path class="cls-2" d="M102.63,131.29c-2.32,0-4.58-.62-6.97-1.27l-.83-.23c-22.9-6.18-40.15-26.24-42.92-49.9-.32-2.72-.47-5.65-.46-8.96.04-11.08.07-23.96-.02-36.51-.01-1.92.54-2.78,2.28-3.51,16.09-6.81,32.09-13.69,47.56-20.35.46-.2.87-.3,1.26-.3s.77.09,1.2.28l.89.38c15.28,6.57,31.08,13.37,46.66,19.96,1.8.76,2.36,1.65,2.32,3.67-.09,4.8-.07,9.68-.06,14.39,0,1.97.01,3.93.01,5.9,0,1.98,0,3.96,0,5.95,0,4.1.01,8.19-.01,12.29-.18,28.49-20.7,52.9-48.8,58.03-.69.13-1.39.19-2.12.19ZM102.55,13.67c-.78,0-1.55.17-2.37.52-14.3,6.16-28.3,12.18-42.37,18.15-2.35.99-3.38,2.58-3.37,5.14.07,12.41.05,24.92.03,35.67,0,2.59.06,5.36.6,8.17,4.56,23.67,18.52,39.12,41.5,45.9,1.94.57,3.84,1.09,5.93,1.09h0c.78,0,1.56-.08,2.31-.22,7.15-1.42,13.16-3.72,18.37-7.02,17.36-11,26.55-26.77,27.31-46.87.15-3.98.11-8.02.07-11.92-.02-1.73-.03-3.45-.04-5.18,0-.07.01-.15.01-.22v-5.1c0-4.91,0-9.83.02-14.74,0-.81.02-3.29-2.81-4.49-12.5-5.31-25.74-10.98-42.93-18.38-.77-.33-1.52-.49-2.27-.49Z"/><path class="cls-2" d="M173.28,19.31c-.83-.01-1.4-.63-1.44-1.57-.11-2.58-.11-5.21,0-7.83.04-.96.59-1.57,1.44-1.58,1.26,0,1.48,1.36,1.52,1.77,0,.07,0,.15,0,.23v3.36c0,.08-.01.15-.01.23,0,.4,0,.81.01,1.21.01.86.03,1.67-.02,2.46-.05.84-.47,1.73-1.47,1.73h-.02Z"/><path class="cls-2" d="M162.24,26.38c-1.28,0-2.54-.02-3.75-.07-1.06-.04-1.71-.61-1.71-1.48,0-1.27,1.36-1.45,1.78-1.47.44-.03.89-.03,1.34-.03.38,0,.75,0,1.13.01.4,0,.79.01,1.19.01.43,0,.82,0,1.21-.01.39,0,.79-.01,1.18-.01.44,0,.89,0,1.33.03.54.03,1.8.22,1.83,1.45.03,1.07-.93,1.48-1.83,1.51-1.23.04-2.47.06-3.7.06Z"/><path class="cls-2" d="M184.36,26.38c-1.25,0-2.54-.02-3.82-.07-1.04-.04-1.71-.62-1.7-1.48,0-1.27,1.37-1.44,1.79-1.47.44-.02.89-.03,1.33-.03.38,0,.76,0,1.13.01.4,0,.79.01,1.19.01.43,0,.82,0,1.22-.01.39,0,.79-.01,1.18-.01.44,0,.89,0,1.33.03.54.03,1.8.22,1.82,1.45.02.87-.63,1.45-1.65,1.5-1.25.05-2.53.08-3.81.08Z"/><path class="cls-2" d="M173.29,41.35c-.86,0-1.41-.62-1.45-1.63-.1-2.71-.1-5.34.01-7.83.04-.92.62-1.54,1.45-1.54.82,0,1.39.63,1.47,1.61.06.81.05,1.65.03,2.54,0,.44-.02.87-.01,1.31,0,.41,0,.82.02,1.24.02.92.03,1.78-.02,2.62-.07,1.02-.6,1.65-1.43,1.67h-.05Z"/><path class="cls-2" d="M32.41,19.3c-.79-.03-1.32-.62-1.38-1.53-.06-.87-.05-1.76-.03-2.71,0-.45.02-.9.02-1.34,0-.42,0-.84-.02-1.25-.02-.91-.03-1.76.03-2.59.07-.94.57-1.5,1.39-1.55h0c.85,0,1.34.48,1.43,1.31.3,2.67.3,5.48,0,8.33-.09.92-.77,1.33-1.39,1.33h-.06Z"/><path class="cls-2" d="M18.99,26.36c-.46,0-.91,0-1.36-.04-1.01-.07-1.76-.72-1.73-1.5.03-.79.73-1.39,1.66-1.43,1.32-.05,2.64-.08,3.92-.08s2.63.03,3.91.08c.98.04,1.47.53,1.47,1.45,0,.33,0,1.35-1.54,1.47-.46.03-.91.04-1.37.04-.39,0-.79,0-1.18-.01-.42,0-.84-.02-1.25-.02-.46,0-.88,0-1.3.02-.41,0-.81.02-1.22.02Z"/><path class="cls-2" d="M43.54,26.38c-1.3,0-2.65-.03-4.01-.09-.99-.04-1.59-.77-1.59-1.45,0-.79.75-1.41,1.79-1.48.46-.03.93-.04,1.39-.04.4,0,.81,0,1.21.01.35,0,.7.01,1.04.01.07,0,.15.01.23.01.43,0,.85,0,1.28-.02.4,0,.8-.02,1.2-.02.45,0,.91.01,1.36.05.95.07,1.44.55,1.47,1.4.02.54-.14,1.44-1.37,1.5-1.29.06-2.64.1-3.99.1Z"/><path class="cls-2" d="M32.37,41.31c-1.05-.03-1.3-.99-1.37-1.57,0-.06,0-.12,0-.19v-3.52c.01-.09.02-.18.02-.27,0-.42,0-.85-.02-1.27-.02-.9-.03-1.75.03-2.57.07-.92.59-1.5,1.39-1.54h0c.84,0,1.34.49,1.43,1.31.3,2.69.3,5.5,0,8.33-.09.86-.57,1.29-1.44,1.29h-.06Z"/><path class="cls-2" d="M126.45,187.53c-1.01,0-1.94-.9-1.94-1.89,0-.95.91-1.84,1.91-1.87h0c.93,0,1.83.9,1.85,1.83.02.97-.84,1.91-1.77,1.93h-.05Z"/><path class="cls-2" d="M78.64,187.54c-.97,0-1.9-.91-1.9-1.88,0-.46.21-.94.58-1.31.37-.38.86-.59,1.32-.59.96.02,1.85.93,1.86,1.88,0,.95-.88,1.87-1.82,1.89h-.04Z"/><path class="cls-2" d="M97.24,101c-1.13,0-2.27,0-3.4-.02-1.46-.02-1.86-.43-1.88-1.88-.06-5.17-.05-9.67,0-13.78.01-.84-.08-2.06-.99-2.98-1.01-1.02-2.41-1.02-2.88-1.02-.01,0-.12,0-.13,0-2.08.03-4.15.04-6.23.04s-4.13-.01-6.2-.02h-.96c-1.96-.02-2.28-.33-2.29-2.26-.02-5.72-.02-11.31,0-16.62,0-1.89.36-2.23,2.32-2.24l2.69-.02c1.52-.01,3.04-.03,4.56-.03,2.12,0,3.86.03,5.5.09.12,0,.24,0,.36,0,.52,0,2.11,0,3.21-1.13,1-1.04,1.09-2.46,1.05-3.58-.1-3.07-.08-6.22-.06-9.26,0-1.03.02-2.06.02-3.1,0-2.45.36-2.63,2.53-2.64,2.76,0,5.51-.01,8.27-.01s5.3,0,7.96.02c2.05,0,2.36.32,2.37,2.4v1.71c.03,3.76.05,7.66-.02,11.47-.02.86.07,2.11,1,3.05,1.03,1.05,2.49,1.05,2.97,1.05h.15c2.04-.04,4.08-.05,6.12-.05s4.12.01,6.18.02h.87c2.05.02,2.36.33,2.37,2.4.02,5.47.02,10.95,0,16.42,0,1.96-.32,2.28-2.25,2.29h-1.42c-1.91.02-3.82.03-5.73.03-2.01,0-4.02-.01-6.04-.05h-.19c-.86,0-2.12.11-3.05,1.06-.95.97-1.03,2.25-1.01,3.12.08,3.44.06,6.95.04,10.35v2.62c-.02,2.24-.27,2.5-2.45,2.51-1.01,0-2.02,0-3.03,0h-5.41s-4.95,0-4.95,0ZM85.4,78.33c2.23,0,4.45.02,6.68.04,2.44.02,2.84.43,2.86,2.9.03,4.02.05,8.33,0,12.59,0,.51-.03,2.06,1.05,3.15.69.7,1.65,1.05,2.86,1.05h.23c1.14-.04,2.28-.06,3.42-.06s2.31.02,3.46.06h.23c1.23,0,2.2-.35,2.89-1.05,1.07-1.09,1.05-2.62,1.04-3.12-.05-2.92-.04-5.89-.03-8.77v-3.02c.01-3.72.3-3.72,3.83-3.73,0,0,5.54-.01,6.83-.01,1.66,0,3.32,0,4.97.03h0c1.39,0,2.36-.35,3.06-1.07.69-.71,1.02-1.71.99-2.97-.05-1.88-.1-4.37,0-6.87.06-1.37-.26-2.4-.98-3.15-1.07-1.11-2.61-1.11-3.11-1.11h-.18c-1.64.04-3.28.05-4.92.05-1.17,0-2.34,0-3.51-.01-1.05,0-2.1,0-3.15,0-3.71,0-3.82-.11-3.82-3.72,0-1.02,0-2.05-.01-3.07-.01-2.79-.03-5.68.04-8.51.02-.95-.06-2.32-1.05-3.33-.7-.71-1.68-1.07-2.93-1.07-.13,0-.26,0-.4.01-1.04.06-2.11.08-3.17.08s-2.15-.03-3.23-.08c-.14,0-.28-.01-.4-.01-1.28,0-2.24.35-2.95,1.08-.99,1.01-1.08,2.36-1.06,3.29.1,4.66.06,9.27,0,12.76-.03,2.09-.47,2.52-2.61,2.56-.83.02-1.66.02-2.49.02,0,0-3.89,0-3.89,0-.65,0-1.31,0-1.96.02-.64,0-1.28.02-1.92.02-.94,0-1.71-.02-2.42-.06-.15,0-.29-.01-.42-.01-1.27,0-2.27.37-2.97,1.11-1.1,1.16-1.03,2.8-1,3.34.1,2.03.1,4.14,0,6.44-.02.51-.09,2.07,1,3.2.72.75,1.74,1.12,3.1,1.12h.15c1.96-.04,3.93-.05,5.9-.05Z"/><rect class="cls-1" width="205" height="205"/></g></svg>