<?xml version="1.0" encoding="UTF-8"?><svg id="_圖層_2" xmlns="http://www.w3.org/2000/svg" viewBox="0 0 205 205"><defs><style>.cls-1{fill:none;}.cls-2{stroke:#425f4c;stroke-miterlimit:10;stroke-width:.25px;}.cls-2,.cls-3{fill:#425f4c;}</style></defs><g id="_圖層_1-2"><path class="cls-2" d="M61.22,20.22c4.04,2.07,8.29,3.95,12.75,4.88,2.65.55,5.43.78,8.08.17,2.65-.61,4.82-2.37,7.48-2.98,2.41-.55,4.89-.22,7.08.92,1.52.79,2.87,1.75,4.51,2.31,3.77,1.28,7.95,1.04,11.79.23,4.16-.89,8.23-2.56,11.82-4.85,3.68-2.35,6.92-5.51,9.39-9.11,1.47-2.14,3.96-6.16,1.93-8.69-.97-1.22-2.82-1.8-3.88-.4-1.01,1.33-1.11,3.35-1.23,4.95-.36,4.65-.26,9.43-.05,14.08.43,9.62,2.81,19.08,6.81,27.84,1.82,3.98,4.39,7.68,7.56,10.71,2.94,2.81,6.37,5.04,9.45,7.7,6.76,5.83,12.86,13.28,15.55,21.9,3.14,10.07,1.21,20.98-.8,31.09-1.99,10-5.52,19.7-9.07,29.24-1.51,4.05-3.11,8.07-4.46,12.18-1.62,4.97-2.97,10.06-4.29,15.11-.66,2.54-1.15,5.12-1.57,7.72-.29,1.8-.52,3.63-.95,5.4-.49,2.02-1.53,4.15-3.74,4.64-2.53.56-5.19.65-7.76,1.04-4.39.66-8.76,1.45-13.1,2.37-2.36.5-4.7,1.06-7.03,1.66-1.21.31-2.45.72-3.7.85-1.71.18-3.09-.73-3.98-2.14-.84-1.32-1.41-2.82-1.96-4.28-.92-2.41-1.75-4.85-2.58-7.29-1.03-3.03-2.03-6.06-2.93-9.13-1.85-6.34-3.42-12.83-4.7-19.32-.79-4.01-1.25-8.01-1.41-12.1-.06-1.47-.63-9.44,2.42-8.43,3.62,1.2.75,6.72.06,8.98-.63,2.05-.78,4.29-1,6.41-.43,4.18-.73,8.37-1.05,12.55-.4,5.22-.67,10.43-.62,15.67.04,3.78.25,7.57.16,11.35-.04,1.52.13,4.5-1.3,5.55-.16.12-.52.22-.36.2-.29.04-.62-.02-.91-.03-1.23-.06-2.45-.12-3.68-.15-4.1-.12-8.18-.32-12.23.43-4.22.78-8.32,2.21-12.65,2.35-2.42.07-4.85-.22-7.21-.75-1.02-.23-1.97-.59-2.84-1.16-1.17-.75-2.11-1.82-2.85-2.99-1.24-1.95-2.01-4.16-2.62-6.38-1.01-3.67-1.56-7.47-1.95-11.25-.53-5.08-.78-10.2-.96-15.3-.17-4.92-.1-9.85.34-14.76.51-5.61,1.32-11.2,2.04-16.78.69-5.34,1.42-10.68,2.27-16,.71-4.41,1.48-8.81,2.52-13.16.76-3.16,2.32-6.69,1.34-9.97-.42-1.4-1.34-2.46-2.57-3.22-1.31-.81-3.8-1.36-4.99-.02-1.63,1.84,1.32,5.04,2.42,6.36,4.36,5.21,9.89,9.39,15.25,13.49,3.84,2.93,7.68,5.85,11.71,8.5,2.98,1.96,6.21,3.61,9.09,5.72,1.02.75,1.84,1.65,2.66,2.61,1.42,1.68,3.07,3.23,4.76,4.63,1.06.88,2.19,1.64,3.59,1.8,1.88.21,3.83-.47,5.39-1.5,2.44-1.61,4.25-4.08,5.48-6.7,1.64-3.48,3.42-6.88,5.27-10.25,5.17-9.39,10.92-18.43,16.26-27.72,2-3.48,3.96-6.99,5.84-10.54.92-1.75,1.83-3.51,2.69-5.28.75-1.54,1.64-3.13,2.1-4.79.47-1.73.07-3.45-1.79-4.04-1.92-.61-3.89.15-5.31,1.47-1.87,1.74-3.24,4.14-4.72,6.21-1.7,2.38-3.4,4.75-5.1,7.13-3.44,4.8-6.88,9.61-10.32,14.41-1.55,2.16-3.1,4.44-5.42,5.85-2.05,1.25-4.45,1.75-6.82,1.87-5.24.26-10.62-.84-15.71-1.96-5.35-1.17-10.65-2.62-15.88-4.25-3.78-1.17-7.77-2.74-10.62-5.58-3.05-3.03-3.53-7.18-1.58-10.97,2.04-3.97,5.48-7.01,7.61-10.94,2.32-4.29,3.14-9.22,3.17-14.06.03-4.1-.47-8.22-.7-12.31-.28-4.91-.84-9.78-2.06-14.55-.22-.85-1.53-.48-1.31.37,1.27,4.95,1.79,9.99,2.06,15.07.24,4.37.81,8.75.61,13.13-.23,4.97-1.47,9.8-4.33,13.92-2.41,3.48-5.66,6.57-7.06,10.66-1.25,3.66-.32,7.49,2.29,10.3,2.65,2.85,6.41,4.53,10.03,5.78,4.95,1.71,10.1,3.04,15.2,4.25,5.14,1.22,10.44,2.3,15.74,2.52,4.57.19,9.21-.66,12.53-4.03,1.81-1.84,3.23-4.06,4.72-6.15,1.7-2.38,3.4-4.75,5.1-7.13,3.4-4.75,6.81-9.5,10.21-14.25,1.34-1.88,2.88-4.89,5.33-5.47.81-.19,2.07-.25,2.69.43.74.8.07,2.31-.29,3.16-3.06,7.12-7.05,13.91-10.94,20.61-1.88,3.25-3.81,6.46-5.76,9.67-3.56,5.85-7.03,11.77-10.31,17.79-1.68,3.09-3.22,6.23-4.78,9.39-1.5,3.05-3.96,6.11-7.39,6.98-1.46.37-2.76.19-3.99-.66-1.79-1.23-3.43-2.91-4.9-4.51-.92-1.01-1.74-2.08-2.81-2.95-.98-.79-2.04-1.46-3.12-2.12-7.81-4.75-15.19-10.01-22.32-15.73-2.59-2.08-5.21-4.17-7.59-6.5-2.02-1.98-4.24-4.12-5.55-6.65-.18-.34-.48-.89-.42-1.29.14-.81,1.71-.65,2.28-.5,1.51.4,2.75,1.66,3.12,3.16.43,1.72.05,3.56-.42,5.23-.47,1.68-.91,3.37-1.3,5.07-2.18,9.66-3.42,19.53-4.68,29.34-.71,5.56-1.53,11.13-1.99,16.73-.39,4.82-.41,9.65-.22,14.48.34,8.68.62,17.67,2.94,26.1,1,3.63,2.5,7.57,5.66,9.87,2.19,1.59,4.97,1.96,7.59,2.25,4.39.49,8.61-.4,12.86-1.42,2.1-.51,4.2-.99,6.35-1.21,2.34-.23,4.69-.12,7.03-.06.94.02,1.88.04,2.81.08,1.29.04,2.67.26,3.96.17,1.57-.11,2.36-1.77,2.66-3.11.63-2.76.43-5.74.36-8.55-.1-4.5-.21-9-.07-13.5.16-5.16.64-10.31,1.06-15.46.26-3.17.49-6.36.96-9.5.13-.85.27-1.7.51-2.53.36-1.21.91-2.35,1.25-3.56.45-1.63.79-3.56.05-5.16-.68-1.47-2.66-2.72-4.26-1.93-1.11.55-1.57,1.88-1.81,3-.38,1.74-.41,3.56-.39,5.33.06,4.24.49,8.46,1.27,12.62,1.25,6.67,2.89,13.32,4.73,19.84.69,2.44,1.47,4.85,2.27,7.26,1.42,4.28,2.74,8.7,4.66,12.79.86,1.84,2,3.54,4,4.23,2.02.69,4.37-.25,6.32-.76,4.87-1.26,9.81-2.27,14.76-3.14,1.73-.3,3.47-.59,5.2-.85,1.35-.2,1.88-.27,3.3-.45,2.22-.28,4.8-.17,6.6-1.71,2.21-1.88,2.63-4.92,3.06-7.63.38-2.35.73-4.7,1.22-7.02.58-2.71,1.37-5.36,2.12-8.02,1.31-4.66,2.55-9.31,4.2-13.87,3.34-9.21,6.97-18.32,9.75-27.72,1.4-4.73,2.44-9.52,3.26-14.38.85-5.07,1.67-10.18,1.69-15.34.02-5.18-.86-10.32-2.85-15.11-1.73-4.16-4.17-7.95-7.05-11.4-2.68-3.22-5.62-6.26-8.87-8.92-3.07-2.52-6.4-4.73-9.17-7.59-3.12-3.22-5.5-7.08-7.18-11.23-1.9-4.68-3.55-9.52-4.58-14.47-.95-4.58-1.33-9.25-1.42-13.92-.04-2.28-.02-4.56,0-6.84.02-2.33-.03-4.79.54-7.07.12-.48.31-1.42.84-1.65.87-.37,1.74.9,1.85,1.61.24,1.52-.63,3.21-1.34,4.49-2.16,3.85-5.46,7.27-9.08,9.77-3.56,2.46-7.63,4.22-11.84,5.2-3.93.92-8.29,1.21-12.12-.27-1.65-.64-3.05-1.76-4.68-2.45-2.08-.88-4.34-1.1-6.56-.72-2.84.5-5.07,2.34-7.81,3.03-2.45.62-5.06.42-7.52-.08-4.4-.9-8.57-2.73-12.54-4.77-.78-.4-1.46.78-.68,1.18h0Z"/><path class="cls-3" d="M175.08,28.42c-9.97.87-10.68,1.58-11.55,11.55-.87-9.98-1.57-10.68-11.55-11.55,9.97-.87,10.68-1.57,11.55-11.55.87,9.98,1.57,10.68,11.55,11.55Z"/><path class="cls-3" d="M41.13,107.68c-9.97.87-10.68,1.58-11.55,11.55-.87-9.97-1.57-10.68-11.55-11.55,9.97-.87,10.68-1.57,11.55-11.55.87,9.97,1.58,10.68,11.55,11.55Z"/><path class="cls-3" d="M186.97,135.58c-5.12.45-5.48.81-5.93,5.93-.45-5.12-.81-5.48-5.93-5.93,5.12-.45,5.48-.81,5.93-5.93.45,5.12.81,5.48,5.93,5.93Z"/><rect class="cls-1" width="205" height="205"/></g></svg>