<?xml version="1.0" encoding="UTF-8"?><svg id="_圖層_2" xmlns="http://www.w3.org/2000/svg" viewBox="0 0 250 200"><defs><style>.cls-1{fill:none;}.cls-2{fill:#c8d286;stroke:#fff;stroke-miterlimit:10;stroke-width:.46px;}</style></defs><g id="_圖層_1-2"><g id="idzkrM"><path class="cls-2" d="M124.44,194.91c-15.17,0-30.34.04-45.52-.02-5.93-.03-11.64-1.27-16.91-4.09-9.54-5.12-14.32-13.31-14.86-23.95-.55-10.94,2.8-21.01,8.17-30.31,13.22-22.87,33.17-36.55,59.29-39.44,33.29-3.68,59.68,8.95,78.06,37.2,5.55,8.52,8.88,18.11,9.58,28.29,1.08,15.89-8.92,28.75-24.58,31.56-2.79.5-5.62.71-8.46.71-14.93,0-29.85,0-44.78,0,0,.02,0,.03,0,.05Z"/><path class="cls-2" d="M168.16,48.79c-.06,25-20.37,44.2-44.97,43.54-23.76-.64-43.02-20.88-42.3-44.88.72-24.37,21.14-43.86,46.78-42.29,22.27,1.37,40.62,19.94,40.49,43.63Z"/><path class="cls-2" d="M185.66,85.74c-2.96.03-5.91.21-8.66-1.28-4.84-2.64-7.33-7.96-6.13-13.26,1.22-5.39,5.91-9.18,11.63-9.34,2.34-.07,4.69-.08,7.03,0,1.51.06,2.08-.46,2.07-2.01-.02-2.83-.17-5.66.19-8.49.76-5.96,5.71-10.5,11.65-10.61,5.92-.11,11.05,4.29,11.99,10.23.47,2.95.23,5.91.23,8.86,0,1.53.52,2.08,2.04,2.03,2.59-.09,5.18-.09,7.76,0,5.7.2,11.03,4.92,11.4,10,.52,7.23-3.1,12.69-9.49,13.66-3.08.47-6.27.27-9.41.17-1.8-.05-2.34.55-2.31,2.31.04,3.07.28,6.16-.23,9.23-.95,5.67-6.19,10.03-11.91,9.89-5.95-.14-10.95-4.61-11.7-10.37-.39-3.01-.23-6.03-.21-9.05.01-1.54-.53-2.12-2.06-2-1.29.1-2.59.02-3.88.02Z"/></g><rect class="cls-1" width="250" height="200"/></g></svg>