<?xml version="1.0" encoding="UTF-8"?><svg id="_圖層_2" xmlns="http://www.w3.org/2000/svg" viewBox="0 0 250 200"><defs><style>.cls-1{fill:none;}.cls-2{fill:#c8d286;stroke:#fff;stroke-miterlimit:10;stroke-width:.45px;}</style></defs><g id="_圖層_1-2"><g id="LQhCjO"><path class="cls-2" d="M124.79,192.21c-18.74,0-37.49-.21-56.23.09-9.36.15-17.51-6-19.81-15.5-5.47-22.58-11.19-45.11-16.94-67.62-1.58-6.17-.86-11.56,4.21-15.8,3.6-3,7.77-3.69,12.3-2.54,8.61,2.18,17.25,4.21,25.82,6.52,2.8.76,4.52,0,6.24-2.17,9.58-12.09,19.23-24.12,28.89-36.15,8.43-10.49,22.97-10.53,31.39-.06,9.57,11.89,19.14,23.78,28.57,35.78,2.03,2.58,3.98,3.35,7.23,2.45,8.32-2.32,16.73-4.3,25.12-6.33,10.83-2.62,19.54,5.96,16.87,16.79-5.79,23.51-11.7,46.99-17.68,70.45-2.2,8.63-9.38,14.05-18.32,14.07-19.23.04-38.46.01-57.68.02Z"/><path class="cls-2" d="M29.33,83.12c-8.57-.03-15.84-7.22-15.86-15.69-.02-8.6,7.24-15.9,15.88-15.98,8.53-.08,15.84,7.32,15.8,16-.04,8.54-7.27,15.7-15.82,15.67Z"/><path class="cls-2" d="M220.72,83.12c-8.55.05-15.8-7.09-15.86-15.63-.06-8.68,7.2-16.08,15.75-16.04,8.62.03,15.91,7.33,15.93,15.93.02,8.46-7.24,15.69-15.82,15.74Z"/><path class="cls-2" d="M124.92,39.06c-8.79-.02-15.61-6.89-15.61-15.71,0-8.9,6.9-15.69,15.89-15.66,8.74.03,15.51,6.95,15.49,15.83-.02,8.76-6.93,15.56-15.77,15.55Z"/></g><rect class="cls-1" width="250" height="200"/></g></svg>