<?xml version="1.0" encoding="UTF-8"?><svg id="_圖層_2" xmlns="http://www.w3.org/2000/svg" viewBox="0 0 250 200"><defs><style>.cls-1{fill:none;}.cls-2{fill:#c8d286;stroke:#fff;stroke-miterlimit:10;stroke-width:.62px;}</style></defs><g id="_圖層_1-2"><g id="OTZsQu"><path class="cls-2" d="M124.95,188.53c-13.06,0-26.12.01-39.18,0-10.9-.02-18.06-9.46-14.9-19.86,3.17-10.41,6.51-20.78,9.9-31.12,2.28-6.95,8.95-9.88,15.6-6.7,9.74,4.65,19.95,6.74,30.69,6.44,8.83-.25,17.31-2.07,25.31-5.89,1.97-.94,3.96-1.77,6.17-1.82.7-.02,1.69-.11,1.96.69.24.71-.65,1.05-1.13,1.49-6.73,6.17-9.15,13.7-6.94,22.57,2.34,9.38,11.1,16.2,20.83,16.39,6.52.13,5.79-.93,5.84,5.88.03,4.4-2.73,7.19-6,9.48-2.5,1.75-5.35,2.5-8.47,2.48-13.23-.07-26.46-.03-39.68-.03Z"/><path class="cls-2" d="M53.9,121.16c-11.98,0-23.95.02-35.93,0-10.68-.02-17.83-9.56-14.72-19.82,2.6-8.59,5.39-17.12,8.24-25.63,2.21-6.61,8.7-9.61,15.03-6.69,9.21,4.25,18.81,5.89,28.86,5.43,7.31-.33,14.28-1.99,20.96-5.01,6.03-2.73,11.62-1.38,14.82,3.37,1.09,1.61,1.18,3,.18,4.81-7.58,13.69-7.22,27.27.77,40.7.45.75,1.51,1.47,1.01,2.38-.49.89-1.67.45-2.54.45-12.23.02-24.45.02-36.68.02Z"/><path class="cls-2" d="M229.53,121.18c-1.76-.15-3.81.58-5.34-.33-1.72-1.03-.93-3.35-1.38-5.06-2.71-10.34-11.72-16.98-22.86-16.64-9.75.29-18.43,7.89-20.35,17.82q-.81,4.19-5.08,4.19c-5.24,0-10.48-.04-15.72.02-1.94.02-2.39-.43-1.27-2.23,8.5-13.74,8.77-27.7.87-41.78-.77-1.37-.62-2.46.09-3.71,2.78-4.86,8.72-6.89,14.06-4.42,9.19,4.25,18.79,5.91,28.86,5.46,7.23-.33,14.15-1.84,20.73-4.88,7.87-3.63,14.24-.9,16.86,7.28,2.61,8.15,5.31,16.27,7.78,24.46,2.7,8.95-2.36,17.61-11.21,19.54-1.98.43-3.98.16-6.03.27Z"/><path class="cls-2" d="M179.56,135.79c2.16,0,4.33-.07,6.49.02,1.71.07,2.4-.59,2.37-2.32-.06-3.99-.09-7.98.02-11.97.15-5.34,2.49-9.48,7.34-11.86,4.58-2.24,9.08-1.71,13.18,1.3,3.37,2.47,5.02,5.93,5.1,10.08.08,4.07.11,8.15,0,12.22-.06,1.99.68,2.62,2.61,2.56,3.74-.11,7.49-.04,11.23-.03,7.82.03,13.51,5.28,13.64,12.57.12,7.15-5.54,12.8-13.24,13.07-3.91.13-7.82.09-11.73.01-1.8-.04-2.55.57-2.5,2.44.1,3.82.05,7.65.02,11.47-.05,7.5-5.49,13.32-12.56,13.48-7.03.16-12.79-5.49-13.08-12.99-.14-3.65-.03-7.32-.04-10.98-.01-3.4-.02-3.34-3.52-3.42-4.4-.1-8.82.38-13.2-.36-6.21-1.05-11-6.81-10.68-12.86.35-6.66,5.59-12.07,12.08-12.41,2.16-.11,4.33-.02,6.49-.02,0,0,0-.02,0-.02Z"/><path class="cls-2" d="M154.68,97.51c-.03,16.32-13.47,29.64-29.83,29.56-16.33-.08-29.47-13.45-29.45-29.94.02-16.19,13.36-29.53,29.58-29.59,16.41-.06,29.72,13.38,29.7,29.97Z"/><path class="cls-2" d="M25.01,38.26c0-14.91,12.17-27.14,26.95-27.1,14.92.04,27.3,12.52,27.07,27.29-.23,14.83-12.26,26.77-27,26.79-14.86.02-27.01-12.11-27.01-26.97Z"/><path class="cls-2" d="M225.07,38.47c-.06,14.81-12.32,26.86-27.23,26.76-14.69-.1-26.98-12.49-26.8-27,.19-14.98,12.18-26.98,27.04-27.07,14.86-.09,27.04,12.24,26.98,27.31Z"/></g><rect class="cls-1" width="250" height="200"/></g></svg>