<?xml version="1.0" encoding="UTF-8"?><svg id="_圖層_2" xmlns="http://www.w3.org/2000/svg" viewBox="0 0 180 115"><defs><style>.cls-1{fill:none;}.cls-2{fill:#c8d286;stroke:#fff;stroke-miterlimit:10;stroke-width:.23px;}</style></defs><g id="_圖層_1-2"><g id="LQhCjO"><path class="cls-2" d="M89.89,104.44c-9.54,0-19.08-.1-28.62.05-4.77.08-8.91-3.06-10.08-7.89-2.78-11.5-5.7-22.96-8.62-34.42-.8-3.14-.44-5.88,2.14-8.04,1.83-1.53,3.96-1.88,6.26-1.29,4.38,1.11,8.78,2.14,13.15,3.32,1.43.38,2.3,0,3.18-1.1,4.88-6.16,9.79-12.28,14.71-18.4,4.29-5.34,11.69-5.36,15.98-.03,4.87,6.05,9.75,12.11,14.55,18.22,1.03,1.32,2.03,1.71,3.68,1.25,4.23-1.18,8.52-2.19,12.79-3.22,5.51-1.33,9.95,3.03,8.59,8.55-2.95,11.97-5.96,23.92-9,35.86-1.12,4.39-4.78,7.15-9.33,7.16-9.79.02-19.58,0-29.36,0Z"/><path class="cls-2" d="M41.3,48.91c-4.36-.01-8.07-3.68-8.08-7.99-.01-4.38,3.68-8.09,8.09-8.13,4.34-.04,8.06,3.72,8.04,8.14-.02,4.35-3.7,7.99-8.05,7.98Z"/><path class="cls-2" d="M138.73,48.91c-4.35.03-8.05-3.61-8.08-7.96-.03-4.42,3.67-8.18,8.02-8.17,4.39.02,8.1,3.73,8.11,8.11.01,4.31-3.69,7.99-8.05,8.01Z"/><path class="cls-2" d="M89.96,26.48c-4.47,0-7.95-3.51-7.95-8,0-4.53,3.51-7.99,8.09-7.97,4.45.02,7.9,3.54,7.89,8.06-.01,4.46-3.53,7.92-8.03,7.91Z"/></g><rect class="cls-1" width="180" height="115"/></g></svg>