<?xml version="1.0" encoding="UTF-8"?><svg id="_圖層_2" xmlns="http://www.w3.org/2000/svg" viewBox="0 0 180 115"><defs><style>.cls-1{fill:none;}.cls-2{fill:#c8d286;stroke:#fff;stroke-miterlimit:10;stroke-width:.09px;}</style></defs><g id="_圖層_1-2"><path class="cls-2" d="M69.17,82.08l-9.93-4.34c-1.13-.49-2.41-.49-3.54.02l-9.88,4.44c-3.06,1.37-6.46-1.07-6.13-4.41l1.06-10.78c.12-1.23-.28-2.45-1.11-3.36l-7.28-8.03c-2.25-2.48-.98-6.47,2.3-7.19l10.58-2.32c1.2-.26,2.24-1.02,2.85-2.09l5.39-9.4c1.67-2.91,5.86-2.93,7.55-.04l5.48,9.35c.62,1.06,1.67,1.81,2.87,2.06l10.6,2.22c3.28.69,4.6,4.66,2.37,7.17l-7.19,8.1c-.82.92-1.21,2.14-1.08,3.37l1.17,10.77c.36,3.33-3.01,5.81-6.09,4.47Z"/><path class="cls-2" d="M134.47,82.08l-9.93-4.34c-1.13-.49-2.41-.49-3.54.02l-9.88,4.44c-3.06,1.37-6.46-1.07-6.13-4.41l1.06-10.78c.12-1.23-.28-2.45-1.11-3.36l-7.28-8.03c-2.25-2.48-.98-6.47,2.3-7.19l10.58-2.32c1.2-.26,2.24-1.02,2.85-2.09l5.39-9.4c1.67-2.91,5.86-2.93,7.55-.04l5.48,9.35c.62,1.06,1.67,1.81,2.87,2.06l10.6,2.22c3.28.69,4.6,4.66,2.37,7.17l-7.19,8.1c-.82.92-1.21,2.14-1.08,3.37l1.17,10.77c.36,3.33-3.01,5.81-6.09,4.47Z"/><rect class="cls-1" width="180" height="115"/></g></svg>