<?xml version="1.0" encoding="UTF-8"?><svg id="_圖層_2" xmlns="http://www.w3.org/2000/svg" viewBox="0 0 15.83 16.78"><defs><style>.cls-1{fill:#c8d286;}</style></defs><g id="_圖層_1-2"><path class="cls-1" d="M.1,10.35c1.47,1.96,2.94,3.92,4.41,5.88.32.43,1.6.13,1.98.03.59-.16,1.4-.43,1.7-1.01,2.22-4.3,4.44-8.59,6.66-12.89.31-.6.62-1.2.93-1.8C16.13-.13,14.46,0,14.22.04c-.72.11-1.84.4-2.21,1.12-2.22,4.3-4.44,8.59-6.66,12.89-.31.6-.62,1.2-.93,1.8l3.68-.99-4.41-5.88c-.16-.21-.8-.2-.99-.19-.5.02-1.03.15-1.49.32-.43.16-1.54.64-1.1,1.23H.1Z"/></g></svg>