<?xml version="1.0" encoding="UTF-8"?><svg id="_圖層_2" xmlns="http://www.w3.org/2000/svg" viewBox="0 0 287.59 276.24"><defs><style>.cls-1{fill:#c8d286;fill-rule:evenodd;}</style></defs><g id="_圖層_1-2"><path class="cls-1" d="M120.79,64.57c3.86,1.01,6.17,4.95,5.16,8.81-1.01,3.86-4.95,6.17-8.81,5.16-3.86-1.01-6.17-4.95-5.17-8.81,1.01-3.86,4.95-6.17,8.81-5.16h0ZM43.95,146.41c13.74,3.58,21.97,17.62,18.39,31.36-3.58,13.74-17.62,21.97-31.36,18.39-13.74-3.58-21.97-17.62-18.39-31.36,3.58-13.74,17.62-21.97,31.36-18.39h0ZM251.99,225.26c1.62,5.5-1.52,11.27-7.02,12.9-5.5,1.62-11.27-1.52-12.9-7.02-1.62-5.5,1.52-11.27,7.02-12.9,5.5-1.62,11.27,1.52,12.9,7.02h0ZM83.36,258.99c-4.9,2.97-11.29,1.4-14.26-3.5-2.97-4.91-1.4-11.29,3.51-14.26,4.91-2.97,11.29-1.4,14.26,3.51,2.97,4.9,1.4,11.29-3.51,14.26h0ZM225.53,16.68c5.28-2.24,11.37.22,13.61,5.49,2.24,5.28-.22,11.37-5.49,13.62-5.28,2.24-11.37-.22-13.61-5.49-2.24-5.28.22-11.37,5.49-13.61h0ZM274.06,190.91c3.13,4.8,1.78,11.23-3.02,14.37-4.8,3.13-11.24,1.78-14.37-3.02-3.13-4.8-1.78-11.23,3.02-14.37,4.8-3.13,11.23-1.78,14.37,3.02h0ZM47.3,233.41c-5.58,1.3-11.16-2.17-12.47-7.75-1.3-5.58,2.17-11.17,7.75-12.47,5.58-1.3,11.16,2.17,12.47,7.75,1.3,5.58-2.17,11.17-7.75,12.47h0ZM5.76,147.55c5.13,2.56,11.36.47,13.92-4.67,2.56-5.13.47-11.37-4.67-13.92-5.13-2.56-11.37-.47-13.92,4.67-2.55,5.13-.47,11.36,4.67,13.92h0ZM77.2,9.78c.33-5.72,5.25-10.09,10.97-9.76,5.72.33,10.09,5.25,9.76,10.97-.33,5.72-5.24,10.09-10.97,9.76-5.72-.33-10.09-5.24-9.76-10.97h0ZM279.82,89.52c5.55,1.45,8.87,7.12,7.43,12.66-1.45,5.55-7.12,8.87-12.66,7.43-5.55-1.45-8.87-7.12-7.43-12.66,1.45-5.55,7.12-8.87,12.66-7.43h0ZM71.78,26.05c10.3,2.69,16.48,13.22,13.79,23.52-2.69,10.3-13.22,16.48-23.52,13.79-1.43-.37-2.78-.9-4.04-1.55l-24.72,35.6c2.11,2.49,3.01,5.94,2.13,9.33-1.45,5.55-7.12,8.87-12.66,7.43-5.55-1.45-8.87-7.12-7.43-12.66,1.45-5.55,7.12-8.87,12.66-7.43.28.07.56.16.83.25l24.78-35.68c-4.89-4.68-7.16-11.79-5.33-18.8,2.69-10.3,13.22-16.48,23.52-13.79h0ZM144.46,23.13l-17.39-5.65c-2.39,2.71-6.18,4.01-9.92,3.04-5.28-1.38-8.45-6.78-7.07-12.06C111.46,3.17,116.86,0,122.14,1.38c5.28,1.38,8.45,6.78,7.07,12.06v.02s16.46,5.35,16.46,5.35c4.22-10.96,16.1-17.24,27.74-14.21,12.51,3.26,20.01,16.05,16.75,28.56-3.26,12.51-16.05,20.01-28.55,16.74-11.92-3.11-19.28-14.85-17.14-26.77h0ZM176.76,197.76l-15.95,31.02c9.23,5.81,14.06,17.12,11.17,28.24-3.58,13.74-17.62,21.97-31.36,18.39-13.74-3.58-21.97-17.62-18.39-31.36,3.58-13.74,17.62-21.97,31.36-18.39,1.47.38,2.87.88,4.21,1.49l15.83-30.78c-2.22-1.72-3.33-4.65-2.57-7.54,1.01-3.86,4.95-6.17,8.81-5.17,3.86,1.01,6.17,4.95,5.16,8.81-.96,3.68-4.58,5.95-8.26,5.28h0ZM223.25,59.75c-6.42,10-46.03,11.99-53.35,4.04-1.3-1.42-3.01-2.49-5.01-3.01-5.55-1.45-11.22,1.88-12.66,7.43-1.45,5.55,1.88,11.22,7.43,12.66,3.7.96,7.44-.19,9.96-2.71,9.14-9.14,45.81-12.61,53.44-.14,2.24,3.66,5.85,6.49,10.32,7.66,9.19,2.4,18.58-3.11,20.98-12.3,2.4-9.19-3.11-18.58-12.3-20.98-7.39-1.93-14.9,1.26-18.81,7.34h0ZM261.59,161.01c.82.36,1.67.66,2.56.89,9.19,2.4,18.58-3.11,20.98-12.3,2.4-9.19-3.11-18.58-12.3-20.98-9.19-2.39-18.58,3.11-20.98,12.3-1.77,6.78.76,13.66,5.9,17.77l-20.72,37.18-.23-.06c-5.55-1.45-11.22,1.88-12.66,7.43-1.45,5.55,1.88,11.22,7.43,12.66,5.55,1.45,11.22-1.88,12.66-7.43,1.03-3.95-.36-7.96-3.25-10.47l20.62-36.99h0ZM167.89,139.47l-30.69,22.67c.9,2.06,1.14,4.42.53,6.76-1.45,5.55-7.12,8.87-12.66,7.43-5.55-1.45-8.87-7.12-7.43-12.66,1.45-5.55,7.12-8.87,12.66-7.43,1.64.43,3.1,1.23,4.28,2.29l30.73-22.71c-3.3-5.66-4.45-12.58-2.66-19.42,3.58-13.74,17.62-21.97,31.36-18.39,13.74,3.58,21.97,17.62,18.39,31.36-3.58,13.74-17.62,21.97-31.36,18.39-5.34-1.39-9.85-4.36-13.15-8.28h0ZM100.43,132.47c7.31-.35,13.87-5.38,15.81-12.84,2.4-9.19-3.11-18.58-12.3-20.98-9.19-2.4-18.58,3.11-20.98,12.3-2.4,9.19,3.11,18.58,12.3,20.98.23.06.45.11.68.16l-8.29,51.45c-4.28.34-8.07,3.34-9.22,7.73-1.45,5.55,1.88,11.22,7.43,12.66,5.55,1.45,11.22-1.88,12.66-7.43,1.36-5.2-1.49-10.52-6.43-12.35l8.32-51.7h0ZM231.97,156.18c5.55,1.45,8.87,7.12,7.43,12.66-1.45,5.55-7.12,8.87-12.66,7.43-5.55-1.45-8.87-7.12-7.43-12.66,1.45-5.55,7.12-8.87,12.66-7.43h0ZM207.95,252.29c3.86,1.01,6.17,4.95,5.16,8.81-1.01,3.86-4.95,6.17-8.81,5.17-3.86-1.01-6.17-4.95-5.16-8.81,1.01-3.86,4.95-6.17,8.81-5.16Z"/></g></svg>