<?xml version="1.0" encoding="UTF-8"?><svg id="_圖層_2" xmlns="http://www.w3.org/2000/svg" viewBox="0 0 156.88 158.67"><defs><style>.cls-1{fill-rule:evenodd;}.cls-1,.cls-2{fill:#fff;}</style></defs><g id="_圖層_1-2"><path class="cls-1" d="M68.73,27.3c1.63.43,2.61,2.09,2.18,3.72-.43,1.63-2.09,2.61-3.72,2.18-1.63-.42-2.61-2.09-2.18-3.72.42-1.63,2.09-2.61,3.72-2.18h0ZM36.24,61.89c5.81,1.51,9.29,7.45,7.77,13.26-1.51,5.81-7.45,9.29-13.26,7.77-5.81-1.51-9.29-7.45-7.77-13.26,1.51-5.81,7.45-9.29,13.26-7.77h0ZM124.19,95.22c.69,2.32-.64,4.77-2.97,5.45-2.33.69-4.77-.64-5.45-2.97-.69-2.33.64-4.77,2.97-5.45,2.32-.69,4.77.64,5.45,2.97h0ZM52.9,109.48c-2.07,1.26-4.77.59-6.03-1.48-1.25-2.07-.59-4.77,1.48-6.03,2.07-1.25,4.77-.59,6.03,1.48,1.26,2.07.59,4.77-1.48,6.03h0ZM113,7.05c2.23-.95,4.81.09,5.76,2.32.95,2.23-.09,4.81-2.32,5.76-2.23.95-4.81-.09-5.76-2.32-.95-2.23.09-4.81,2.32-5.76h0ZM133.52,80.7c1.32,2.03.75,4.75-1.28,6.07-2.03,1.32-4.75.75-6.07-1.28-1.32-2.03-.75-4.75,1.28-6.07,2.03-1.32,4.75-.75,6.07,1.28h0ZM37.66,98.67c-2.36.55-4.72-.92-5.27-3.28-.55-2.36.92-4.72,3.28-5.27,2.36-.55,4.72.92,5.27,3.28s-.92,4.72-3.28,5.27h0ZM20.1,62.37c2.17,1.08,4.8.2,5.88-1.97,1.08-2.17.2-4.8-1.97-5.88-2.17-1.08-4.8-.2-5.88,1.97-1.08,2.17-.2,4.8,1.97,5.88h0ZM50.3,4.13C50.44,1.71,52.52-.13,54.94,0c2.42.14,4.27,2.22,4.12,4.64-.14,2.42-2.22,4.27-4.64,4.13-2.42-.14-4.27-2.22-4.13-4.64h0ZM135.95,37.84c2.35.61,3.75,3.01,3.14,5.35-.61,2.34-3.01,3.75-5.35,3.14-2.35-.61-3.75-3.01-3.14-5.35.61-2.35,3.01-3.75,5.35-3.14h0ZM48.01,11.01c4.36,1.14,6.97,5.59,5.83,9.94-1.14,4.36-5.59,6.97-9.94,5.83-.61-.16-1.18-.38-1.71-.66l-10.45,15.05c.89,1.05,1.27,2.51.9,3.95-.61,2.35-3.01,3.75-5.35,3.14-2.35-.61-3.75-3.01-3.14-5.35.61-2.35,3.01-3.75,5.35-3.14.12.03.24.07.35.11l10.47-15.08c-2.07-1.98-3.03-4.99-2.26-7.95,1.14-4.36,5.59-6.97,9.94-5.83h0ZM78.73,9.78l-7.35-2.39c-1.01,1.15-2.61,1.69-4.19,1.28-2.23-.58-3.57-2.86-2.99-5.1C64.78,1.34,67.06,0,69.3.58c2.23.58,3.57,2.87,2.99,5.1h0s6.96,2.27,6.96,2.27c1.79-4.63,6.8-7.29,11.72-6.01,5.29,1.38,8.46,6.78,7.08,12.07-1.38,5.29-6.78,8.46-12.07,7.08-5.04-1.31-8.15-6.28-7.24-11.32h0ZM92.38,83.6l-6.74,13.11c3.9,2.46,5.94,7.24,4.72,11.94-1.51,5.81-7.45,9.29-13.26,7.77-5.81-1.51-9.29-7.45-7.77-13.26,1.51-5.81,7.45-9.29,13.26-7.77.62.16,1.21.37,1.78.63l6.69-13.01c-.94-.73-1.41-1.97-1.09-3.19.43-1.63,2.09-2.61,3.72-2.18,1.63.43,2.61,2.09,2.18,3.72-.4,1.55-1.94,2.52-3.49,2.23h0ZM112.04,25.26c-2.71,4.23-19.46,5.07-22.55,1.71-.55-.6-1.27-1.05-2.12-1.27-2.35-.61-4.74.79-5.35,3.14-.61,2.35.79,4.74,3.14,5.35,1.56.41,3.15-.08,4.21-1.14,3.86-3.86,19.36-5.33,22.59-.06.95,1.55,2.47,2.74,4.36,3.24,3.88,1.01,7.85-1.32,8.87-5.2,1.01-3.88-1.32-7.85-5.2-8.87-3.12-.81-6.3.53-7.95,3.11h0ZM128.24,68.06c.35.15.71.28,1.08.37,3.88,1.01,7.86-1.32,8.87-5.2,1.01-3.88-1.32-7.85-5.2-8.87-3.88-1.01-7.85,1.32-8.87,5.2-.75,2.86.32,5.77,2.49,7.51l-8.76,15.71-.1-.03c-2.35-.61-4.74.79-5.35,3.14-.61,2.35.79,4.74,3.14,5.35,2.35.61,4.74-.79,5.35-3.14.43-1.67-.15-3.37-1.37-4.42l8.72-15.64h0ZM88.64,58.96l-12.97,9.58c.38.87.48,1.87.22,2.86-.61,2.35-3.01,3.75-5.35,3.14-2.35-.61-3.75-3.01-3.14-5.35.61-2.35,3.01-3.75,5.35-3.14.7.18,1.31.52,1.81.97l12.99-9.6c-1.39-2.39-1.88-5.32-1.13-8.21,1.51-5.81,7.45-9.29,13.26-7.77,5.81,1.51,9.29,7.45,7.77,13.26-1.51,5.81-7.45,9.29-13.26,7.77-2.26-.59-4.16-1.84-5.56-3.5h0ZM60.12,56c3.09-.15,5.86-2.28,6.68-5.43,1.01-3.88-1.32-7.85-5.2-8.87-3.88-1.01-7.85,1.32-8.87,5.2-1.01,3.88,1.32,7.85,5.2,8.87.1.02.19.05.29.07l-3.5,21.75c-1.81.14-3.41,1.41-3.9,3.27-.61,2.35.79,4.74,3.14,5.35,2.35.61,4.74-.79,5.35-3.14.57-2.2-.63-4.45-2.72-5.22l3.52-21.85h0ZM115.73,66.02c2.35.61,3.75,3.01,3.14,5.35-.61,2.35-3.01,3.75-5.35,3.14-2.35-.61-3.75-3.01-3.14-5.35.61-2.35,3.01-3.75,5.35-3.14h0ZM105.57,106.65c1.63.42,2.61,2.09,2.18,3.72-.43,1.63-2.09,2.61-3.72,2.18-1.63-.43-2.61-2.09-2.18-3.72.43-1.63,2.09-2.61,3.72-2.18Z"/><path class="cls-2" d="M2.62,145.44H0v-2.69h7.83v2.69h-2.62v12.92h-2.6v-12.92Z"/><path class="cls-2" d="M15.3,142.75h2.02l5.88,15.61h-2.85l-1.4-4.03h-5.31l-1.37,4.03h-2.87l5.88-15.61ZM14.57,151.64h3.45l-1.74-4.99h0l-1.71,4.99Z"/><path class="cls-2" d="M26.14,142.75h2.6v15.61h-2.6v-15.61Z"/><path class="cls-2" d="M42.85,152.55l-4.62-9.8h2.82l3.12,7.26h0s3.08-7.26,3.08-7.26h2.82l-4.62,9.8v5.81h-2.6v-5.81Z"/><path class="cls-2" d="M62.57,152.52c0,1.97-.43,3.49-1.3,4.56-.87,1.07-2.11,1.6-3.72,1.6s-2.85-.53-3.72-1.6c-.87-1.06-1.31-2.58-1.31-4.56v-9.77h2.6v9.9c0,1.11.2,1.95.61,2.5.41.55,1.02.83,1.83.83s1.42-.28,1.82-.83.61-1.39.61-2.5v-9.9h2.6v9.77Z"/><path class="cls-2" d="M73.11,142.75h3.52c1.46,0,2.62.37,3.49,1.1.87.73,1.3,1.72,1.3,2.96s-.44,2.13-1.31,2.84l-.26.2c.34.17.65.37.94.6.97.79,1.46,1.85,1.46,3.18,0,1.44-.47,2.59-1.41,3.45-.94.86-2.19,1.29-3.76,1.29h-3.97v-15.61ZM75.71,148.83h.93c.73,0,1.28-.14,1.64-.42.37-.28.55-.7.55-1.27s-.18-.99-.55-1.27c-.37-.29-.91-.43-1.64-.43h-.93v3.39ZM75.71,155.67h1.37c.85,0,1.49-.17,1.92-.52.43-.35.64-.86.64-1.55s-.23-1.22-.69-1.56-1.15-.52-2.07-.52h-1.18v4.15Z"/><path class="cls-2" d="M85.59,142.75h2.6v15.61h-2.6v-15.61Z"/><path class="cls-2" d="M93.75,156.3c-1.43-1.58-2.15-3.49-2.15-5.74s.72-4.17,2.15-5.75c1.43-1.58,3.16-2.37,5.2-2.37s3.77.79,5.2,2.37c1.43,1.58,2.14,3.5,2.14,5.75s-.71,4.16-2.14,5.74c-1.43,1.58-3.16,2.37-5.2,2.37s-3.77-.79-5.2-2.37ZM102.31,154.4c.92-1.05,1.38-2.33,1.38-3.84s-.46-2.8-1.38-3.85c-.92-1.05-2.04-1.58-3.36-1.58s-2.44.53-3.36,1.58c-.92,1.05-1.38,2.34-1.38,3.85s.46,2.79,1.38,3.84c.92,1.05,2.04,1.58,3.36,1.58s2.44-.53,3.36-1.58Z"/><path class="cls-2" d="M111.08,145.44h-2.62v-2.69h7.83v2.69h-2.62v12.92h-2.6v-12.92Z"/><path class="cls-2" d="M118.91,158.36v-15.61h7.56v2.69h-4.96v3.84h4.73v2.69h-4.73v3.7h4.96v2.69h-7.56Z"/><path class="cls-2" d="M143.53,153.99c-.53,1.42-1.39,2.56-2.59,3.41-1.19.85-2.52,1.27-3.99,1.27-2.01,0-3.72-.79-5.13-2.37-1.41-1.58-2.12-3.49-2.12-5.74s.71-4.17,2.12-5.75c1.41-1.58,3.12-2.37,5.13-2.37,1.48,0,2.82.43,4.02,1.29,1.2.86,2.08,2.02,2.62,3.47h-2.96c-.44-.63-1-1.14-1.68-1.51-.68-.38-1.38-.56-2.09-.56-1.24,0-2.3.52-3.2,1.57-.9,1.05-1.35,2.3-1.35,3.75,0,1.55.46,2.86,1.38,3.93.92,1.07,2.04,1.61,3.36,1.61.66,0,1.3-.18,1.94-.54.64-.36,1.17-.84,1.59-1.45h2.96Z"/><path class="cls-2" d="M146.63,142.75h2.6v6.36h5.06v-6.36h2.6v15.61h-2.6v-6.56h-5.06v6.56h-2.6v-15.61Z"/></g></svg>