<?xml version="1.0" encoding="UTF-8"?><svg id="_圖層_2" xmlns="http://www.w3.org/2000/svg" viewBox="0 0 137.5 139.06"><defs><style>.cls-1,.cls-2{fill:#c8d286;}.cls-2{fill-rule:evenodd;}</style></defs><g id="_圖層_1-2"><path class="cls-2" d="M60.23,23.92c1.43.37,2.29,1.83,1.91,3.26-.37,1.43-1.83,2.29-3.26,1.91-1.43-.37-2.29-1.83-1.91-3.26.37-1.43,1.83-2.29,3.26-1.91h0ZM31.76,54.24c5.09,1.33,8.14,6.53,6.81,11.62-1.33,5.09-6.53,8.14-11.62,6.81-5.09-1.33-8.14-6.53-6.81-11.62,1.33-5.09,6.53-8.14,11.62-6.81h0ZM108.84,83.45c.6,2.04-.56,4.18-2.6,4.78-2.04.6-4.18-.56-4.78-2.6-.6-2.04.56-4.18,2.6-4.78,2.04-.6,4.18.56,4.78,2.6h0ZM46.36,95.95c-1.82,1.1-4.18.52-5.28-1.3-1.1-1.82-.52-4.18,1.3-5.28,1.82-1.1,4.18-.52,5.28,1.3,1.1,1.82.52,4.18-1.3,5.28h0ZM99.04,6.18c1.95-.83,4.21.08,5.04,2.04.83,1.96-.08,4.21-2.04,5.04-1.96.83-4.21-.08-5.04-2.04-.83-1.95.08-4.21,2.04-5.04h0ZM117.02,70.73c1.16,1.78.66,4.16-1.12,5.32-1.78,1.16-4.16.66-5.32-1.12-1.16-1.78-.66-4.16,1.12-5.32,1.78-1.16,4.16-.66,5.32,1.12h0ZM33.01,86.47c-2.07.48-4.14-.8-4.62-2.87-.48-2.07.8-4.14,2.87-4.62,2.07-.48,4.14.8,4.62,2.87s-.8,4.14-2.87,4.62h0ZM17.61,54.66c1.9.95,4.21.17,5.16-1.73.95-1.9.17-4.21-1.73-5.16-1.9-.95-4.21-.17-5.16,1.73-.95,1.9-.17,4.21,1.73,5.16h0ZM44.08,3.62c.12-2.12,1.94-3.74,4.06-3.62,2.12.12,3.74,1.94,3.62,4.06-.12,2.12-1.94,3.74-4.06,3.62-2.12-.12-3.74-1.94-3.62-4.06h0ZM119.15,33.16c2.06.54,3.29,2.64,2.75,4.69-.54,2.06-2.64,3.29-4.69,2.75-2.06-.54-3.29-2.64-2.75-4.69.54-2.06,2.64-3.29,4.69-2.75h0ZM42.08,9.65c3.82.99,6.1,4.9,5.11,8.71-1,3.82-4.9,6.1-8.71,5.11-.53-.14-1.03-.33-1.5-.58l-9.16,13.19c.78.92,1.12,2.2.79,3.46-.54,2.06-2.64,3.29-4.69,2.75-2.06-.54-3.29-2.64-2.75-4.69.54-2.06,2.64-3.29,4.69-2.75.1.03.21.06.31.09l9.18-13.22c-1.81-1.73-2.65-4.37-1.98-6.97,1-3.82,4.9-6.1,8.71-5.11h0ZM69,8.57l-6.44-2.09c-.89,1-2.29,1.49-3.67,1.12-1.96-.51-3.13-2.51-2.62-4.47C56.77,1.17,58.78,0,60.73.51c1.96.51,3.13,2.51,2.62,4.47h0s6.1,1.99,6.1,1.99c1.56-4.06,5.96-6.39,10.28-5.26,4.63,1.21,7.41,5.94,6.2,10.58-1.21,4.63-5.94,7.41-10.58,6.2-4.41-1.15-7.14-5.5-6.35-9.92h0ZM80.97,73.27l-5.91,11.49c3.42,2.15,5.21,6.34,4.14,10.46-1.33,5.09-6.53,8.14-11.62,6.81-5.09-1.33-8.14-6.53-6.81-11.62,1.33-5.09,6.53-8.14,11.62-6.81.54.14,1.06.33,1.56.55l5.86-11.4c-.82-.64-1.23-1.72-.95-2.79.37-1.43,1.83-2.29,3.26-1.91,1.43.37,2.29,1.83,1.91,3.26-.35,1.36-1.7,2.2-3.06,1.96h0ZM98.19,22.14c-2.38,3.7-17.05,4.44-19.76,1.5-.48-.52-1.12-.92-1.86-1.11-2.06-.54-4.16.7-4.69,2.75-.54,2.06.7,4.16,2.75,4.69,1.37.36,2.76-.07,3.69-1,3.39-3.38,16.97-4.67,19.8-.05.83,1.36,2.17,2.4,3.83,2.84,3.4.89,6.88-1.15,7.77-4.56.89-3.4-1.15-6.88-4.56-7.77-2.74-.71-5.52.47-6.97,2.72h0ZM112.39,59.65c.3.13.62.24.95.33,3.4.89,6.88-1.15,7.77-4.56.89-3.4-1.15-6.88-4.56-7.77-3.4-.89-6.88,1.15-7.77,4.56-.65,2.51.28,5.06,2.19,6.58l-7.68,13.77-.09-.02c-2.06-.54-4.16.7-4.69,2.75-.54,2.06.7,4.16,2.75,4.69,2.06.54,4.16-.7,4.69-2.75.38-1.46-.13-2.95-1.2-3.88l7.64-13.7h0ZM77.68,51.67l-11.37,8.4c.33.76.42,1.64.2,2.5-.54,2.06-2.64,3.29-4.69,2.75-2.06-.54-3.29-2.64-2.75-4.69.54-2.06,2.64-3.29,4.69-2.75.61.16,1.15.46,1.59.85l11.39-8.41c-1.22-2.1-1.65-4.66-.99-7.2,1.33-5.09,6.53-8.14,11.62-6.81,5.09,1.33,8.14,6.53,6.81,11.62-1.33,5.09-6.53,8.14-11.62,6.81-1.98-.52-3.65-1.62-4.87-3.07h0ZM52.69,49.08c2.71-.13,5.14-1.99,5.86-4.76.89-3.4-1.15-6.88-4.56-7.77-3.4-.89-6.88,1.15-7.77,4.56-.89,3.4,1.15,6.88,4.56,7.77.08.02.17.04.25.06l-3.07,19.06c-1.59.13-2.99,1.24-3.42,2.86-.54,2.06.7,4.16,2.75,4.69,2.06.54,4.16-.7,4.69-2.75.5-1.93-.55-3.9-2.38-4.57l3.08-19.15h0ZM101.42,57.86c2.06.54,3.29,2.64,2.75,4.69-.54,2.06-2.64,3.29-4.69,2.75-2.06-.54-3.29-2.64-2.75-4.69.54-2.06,2.64-3.29,4.69-2.75h0ZM92.52,93.47c1.43.37,2.29,1.83,1.91,3.26-.37,1.43-1.83,2.29-3.26,1.91-1.43-.37-2.29-1.83-1.91-3.26.37-1.43,1.83-2.29,3.26-1.91Z"/><path class="cls-1" d="M2.29,127.46H0v-2.36h6.86v2.36h-2.29v11.33h-2.28v-11.33Z"/><path class="cls-1" d="M13.41,125.1h1.77l5.15,13.68h-2.5l-1.22-3.53h-4.65l-1.2,3.53h-2.51l5.15-13.68ZM12.77,132.9h3.03l-1.52-4.37h0l-1.5,4.37Z"/><path class="cls-1" d="M22.91,125.1h2.28v13.68h-2.28v-13.68Z"/><path class="cls-1" d="M37.55,133.7l-4.05-8.59h2.47l2.73,6.36h0s2.7-6.36,2.7-6.36h2.47l-4.05,8.59v5.09h-2.28v-5.09Z"/><path class="cls-1" d="M54.84,133.67c0,1.73-.38,3.06-1.14,3.99-.76.93-1.85,1.4-3.26,1.4s-2.5-.47-3.26-1.4c-.77-.93-1.15-2.26-1.15-3.99v-8.56h2.28v8.68c0,.98.18,1.71.53,2.19.36.48.89.73,1.61.73s1.24-.24,1.6-.73.53-1.22.53-2.19v-8.68h2.28v8.56Z"/><path class="cls-1" d="M64.08,125.1h3.09c1.28,0,2.3.32,3.06.97.76.64,1.14,1.51,1.14,2.59s-.38,1.86-1.15,2.48l-.23.17c.3.15.57.32.82.52.85.69,1.28,1.62,1.28,2.79,0,1.26-.41,2.27-1.24,3.03-.82.75-1.92,1.13-3.3,1.13h-3.48v-13.68ZM66.35,130.43h.81c.64,0,1.12-.12,1.44-.37.32-.25.48-.62.48-1.11s-.16-.87-.48-1.12c-.32-.25-.8-.38-1.44-.38h-.81v2.97ZM66.35,136.43h1.2c.75,0,1.31-.15,1.69-.46.38-.3.56-.76.56-1.36s-.2-1.06-.61-1.37-1.01-.46-1.82-.46h-1.03v3.64Z"/><path class="cls-1" d="M75.02,125.1h2.28v13.68h-2.28v-13.68Z"/><path class="cls-1" d="M82.16,136.98c-1.25-1.38-1.88-3.06-1.88-5.03s.63-3.66,1.88-5.04c1.26-1.38,2.77-2.08,4.56-2.08s3.31.69,4.56,2.08c1.25,1.39,1.88,3.07,1.88,5.04s-.63,3.65-1.88,5.03c-1.25,1.39-2.77,2.08-4.56,2.08s-3.3-.69-4.56-2.08ZM89.67,135.32c.81-.92,1.21-2.04,1.21-3.37s-.4-2.46-1.21-3.38c-.8-.92-1.79-1.38-2.95-1.38s-2.14.46-2.95,1.38c-.8.92-1.21,2.05-1.21,3.38s.4,2.45,1.21,3.37c.8.92,1.79,1.38,2.95,1.38s2.14-.46,2.95-1.38Z"/><path class="cls-1" d="M97.35,127.46h-2.29v-2.36h6.86v2.36h-2.29v11.33h-2.28v-11.33Z"/><path class="cls-1" d="M104.21,138.79v-13.68h6.63v2.36h-4.35v3.37h4.15v2.36h-4.15v3.24h4.35v2.36h-6.63Z"/><path class="cls-1" d="M125.79,134.96c-.47,1.25-1.22,2.24-2.27,2.98-1.05.74-2.21,1.12-3.5,1.12-1.76,0-3.26-.69-4.5-2.08-1.24-1.38-1.86-3.06-1.86-5.03s.62-3.66,1.86-5.04c1.24-1.38,2.74-2.08,4.5-2.08,1.3,0,2.47.38,3.52,1.13,1.05.76,1.82,1.77,2.3,3.04h-2.59c-.38-.55-.88-.99-1.48-1.32-.6-.33-1.21-.49-1.83-.49-1.08,0-2.02.46-2.81,1.38s-1.18,2.01-1.18,3.28c0,1.36.4,2.5,1.21,3.44s1.79,1.41,2.95,1.41c.58,0,1.14-.16,1.7-.47.56-.32,1.02-.74,1.39-1.27h2.59Z"/><path class="cls-1" d="M128.51,125.1h2.28v5.57h4.43v-5.57h2.27v13.68h-2.27v-5.75h-4.43v5.75h-2.28v-13.68Z"/></g></svg>