<?xml version="1.0" encoding="UTF-8"?><svg id="_圖層_2" xmlns="http://www.w3.org/2000/svg" viewBox="0 0 279.42 66.23"><defs><style>.cls-1{fill:#c8d286;fill-rule:evenodd;}.cls-2{fill:#213b2e;}.cls-3{fill:#425f4c;}</style></defs><g id="_圖層_1-2"><path class="cls-1" d="M28.66,16.01c.92.24,1.46,1.17,1.23,2.09-.24.92-1.17,1.46-2.09,1.23-.92-.24-1.46-1.17-1.23-2.09.24-.92,1.17-1.46,2.09-1.23h0ZM10.43,35.42c3.26.85,5.21,4.18,4.36,7.44-.85,3.26-4.18,5.21-7.44,4.36-3.26-.85-5.21-4.18-4.36-7.44.85-3.26,4.18-5.21,7.44-4.36h0ZM59.78,54.13c.39,1.3-.36,2.67-1.66,3.06-1.3.38-2.67-.36-3.06-1.66-.38-1.3.36-2.67,1.66-3.06,1.3-.39,2.67.36,3.06,1.66h0ZM19.78,62.13c-1.16.7-2.68.33-3.38-.83-.7-1.16-.33-2.68.83-3.38,1.16-.7,2.68-.33,3.38.83.7,1.16.33,2.68-.83,3.38h0ZM53.51,4.65c1.25-.53,2.7.05,3.23,1.3.53,1.25-.05,2.7-1.3,3.23-1.25.53-2.7-.05-3.23-1.3-.53-1.25.05-2.7,1.3-3.23h0ZM65.02,45.98c.74,1.14.42,2.67-.72,3.41-1.14.74-2.67.42-3.41-.72-.74-1.14-.42-2.67.72-3.41,1.14-.74,2.67-.42,3.41.72h0ZM11.22,56.06c-1.32.31-2.65-.51-2.96-1.84-.31-1.32.51-2.65,1.84-2.96,1.32-.31,2.65.51,2.96,1.84.31,1.32-.51,2.65-1.84,2.96h0ZM1.37,35.69c1.22.61,2.7.11,3.3-1.11.61-1.22.11-2.7-1.11-3.3-1.22-.61-2.7-.11-3.3,1.11-.61,1.22-.11,2.7,1.11,3.3h0ZM18.32,3.01c.08-1.36,1.24-2.39,2.6-2.32,1.36.08,2.39,1.24,2.32,2.6-.08,1.36-1.24,2.39-2.6,2.32-1.36-.08-2.39-1.24-2.32-2.6h0ZM66.39,21.93c1.32.34,2.11,1.69,1.76,3-.34,1.32-1.69,2.11-3,1.76-1.32-.34-2.11-1.69-1.76-3,.34-1.32,1.69-2.11,3-1.76h0ZM17.03,6.87c2.44.64,3.91,3.14,3.27,5.58-.64,2.44-3.14,3.91-5.58,3.27-.34-.09-.66-.21-.96-.37l-5.86,8.45c.5.59.71,1.41.5,2.21-.34,1.32-1.69,2.11-3,1.76-1.32-.34-2.11-1.69-1.76-3,.34-1.32,1.69-2.11,3-1.76.07.02.13.04.2.06l5.88-8.47c-1.16-1.11-1.7-2.8-1.27-4.46.64-2.44,3.14-3.91,5.58-3.27h0ZM34.27,6.17l-4.13-1.34c-.57.64-1.47.95-2.35.72-1.25-.33-2-1.61-1.68-2.86.33-1.25,1.61-2,2.86-1.68,1.25.33,2,1.61,1.68,2.86h0s3.91,1.27,3.91,1.27c1-2.6,3.82-4.09,6.58-3.37,2.97.77,4.75,3.81,3.97,6.77-.77,2.97-3.81,4.75-6.77,3.97-2.83-.74-4.57-3.52-4.07-6.35h0ZM41.94,47.61l-3.78,7.36c2.19,1.38,3.34,4.06,2.65,6.7-.85,3.26-4.18,5.21-7.44,4.36-3.26-.85-5.21-4.18-4.36-7.44.85-3.26,4.18-5.21,7.44-4.36.35.09.68.21,1,.35l3.76-7.3c-.53-.41-.79-1.1-.61-1.79.24-.92,1.17-1.46,2.09-1.23.92.24,1.46,1.17,1.23,2.09-.23.87-1.09,1.41-1.96,1.25h0ZM52.97,14.86c-1.52,2.37-10.92,2.84-12.66.96-.31-.34-.72-.59-1.19-.71-1.32-.34-2.66.45-3,1.76-.34,1.32.45,2.66,1.76,3,.88.23,1.77-.05,2.36-.64,2.17-2.17,10.87-2.99,12.68-.03.53.87,1.39,1.54,2.45,1.82,2.18.57,4.41-.74,4.98-2.92.57-2.18-.74-4.41-2.92-4.98-1.75-.46-3.54.3-4.46,1.74h0ZM62.06,38.89c.19.08.4.16.61.21,2.18.57,4.41-.74,4.98-2.92.57-2.18-.74-4.41-2.92-4.98-2.18-.57-4.41.74-4.98,2.92-.42,1.61.18,3.24,1.4,4.22l-4.92,8.82h-.05c-1.32-.36-2.66.43-3,1.75-.34,1.32.45,2.66,1.76,3,1.32.34,2.66-.45,3-1.76.24-.94-.09-1.89-.77-2.48l4.89-8.78h0ZM39.83,33.78l-7.28,5.38c.21.49.27,1.05.12,1.6-.34,1.32-1.69,2.11-3,1.76-1.32-.34-2.11-1.69-1.76-3,.34-1.32,1.69-2.11,3-1.76.39.1.73.29,1.02.54l7.29-5.39c-.78-1.34-1.06-2.98-.63-4.61.85-3.26,4.18-5.21,7.44-4.36,3.26.85,5.21,4.18,4.36,7.44-.85,3.26-4.18,5.21-7.44,4.36-1.27-.33-2.34-1.04-3.12-1.97h0ZM23.83,32.12c1.74-.08,3.29-1.28,3.75-3.05.57-2.18-.74-4.41-2.92-4.98-2.18-.57-4.41.74-4.98,2.92-.57,2.18.74,4.41,2.92,4.98.05.01.11.03.16.04l-1.97,12.21c-1.02.08-1.92.79-2.19,1.83-.34,1.32.45,2.66,1.76,3,1.32.34,2.66-.45,3-1.76.32-1.23-.35-2.5-1.52-2.93l1.97-12.26h0ZM55.04,37.74c1.32.34,2.11,1.69,1.76,3-.34,1.32-1.69,2.11-3,1.76-1.32-.34-2.11-1.69-1.76-3,.34-1.32,1.69-2.11,3-1.76h0ZM49.33,60.54c.92.24,1.46,1.17,1.23,2.09-.24.92-1.17,1.46-2.09,1.23-.92-.24-1.46-1.17-1.23-2.09.24-.92,1.17-1.46,2.09-1.23Z"/><rect class="cls-2" x="86.69" width="1.15" height="65.11"/><path class="cls-3" d="M112.48,7.27h-1.9v-1.76h5.7v1.76h-1.9v8.46h-1.89V7.27Z"/><path class="cls-3" d="M123.43,5.51h1.47l4.28,10.22h-2.07l-1.02-2.64h-3.86l-.99,2.64h-2.08l4.28-10.22ZM122.9,11.33h2.51l-1.26-3.27h0l-1.24,3.27Z"/><path class="cls-3" d="M133.04,5.51h1.89v10.22h-1.89V5.51Z"/><path class="cls-3" d="M148.65,11.93l-3.36-6.42h2.05l2.27,4.75h0s2.24-4.75,2.24-4.75h2.05l-3.36,6.42v3.81h-1.89v-3.81Z"/><path class="cls-3" d="M164.73,11.91c0,1.29-.32,2.29-.95,2.98-.63.7-1.53,1.05-2.71,1.05s-2.07-.35-2.71-1.05c-.64-.7-.96-1.69-.96-2.98v-6.4h1.89v6.48c0,.73.15,1.27.44,1.64.29.36.74.54,1.33.54s1.03-.18,1.33-.54c.29-.36.44-.91.44-1.64v-6.48h1.89v6.4Z"/><path class="cls-3" d="M175.85,5.51h2.56c1.06,0,1.91.24,2.54.72.63.48.95,1.13.95,1.94s-.32,1.39-.95,1.86l-.19.13c.25.11.47.24.68.39.71.52,1.06,1.21,1.06,2.08,0,.95-.34,1.7-1.03,2.26-.68.56-1.6.84-2.74.84h-2.89V5.51ZM177.74,9.49h.68c.53,0,.93-.09,1.19-.28.27-.18.4-.46.4-.83s-.13-.65-.4-.83c-.27-.19-.66-.28-1.19-.28h-.68v2.22ZM177.74,13.97h1c.62,0,1.09-.11,1.4-.34.31-.23.47-.57.47-1.02s-.17-.8-.5-1.02-.84-.34-1.51-.34h-.86v2.72Z"/><path class="cls-3" d="M186.66,5.51h1.89v10.22h-1.89V5.51Z"/><path class="cls-3" d="M194.32,14.38c-1.04-1.03-1.56-2.29-1.56-3.76s.52-2.73,1.56-3.76c1.04-1.03,2.3-1.55,3.78-1.55s2.75.52,3.79,1.55c1.04,1.03,1.56,2.29,1.56,3.76s-.52,2.72-1.56,3.76c-1.04,1.03-2.3,1.55-3.79,1.55s-2.74-.52-3.78-1.55ZM200.55,13.14c.67-.69,1-1.53,1-2.52s-.33-1.84-1-2.52c-.67-.69-1.48-1.03-2.45-1.03s-1.78.34-2.45,1.03c-.67.69-1,1.53-1,2.52s.33,1.83,1,2.52c.67.69,1.48,1.03,2.45,1.03s1.78-.34,2.45-1.03Z"/><path class="cls-3" d="M208.65,7.27h-1.9v-1.76h5.7v1.76h-1.9v8.46h-1.89V7.27Z"/><path class="cls-3" d="M216.08,15.73V5.51h5.5v1.76h-3.61v2.52h3.44v1.76h-3.44v2.42h3.61v1.76h-5.5Z"/><path class="cls-3" d="M235.72,12.87c-.39.93-1.01,1.67-1.88,2.23-.87.56-1.84.83-2.9.83-1.46,0-2.71-.52-3.73-1.55-1.03-1.03-1.54-2.29-1.54-3.76s.51-2.73,1.54-3.76c1.03-1.03,2.27-1.55,3.73-1.55,1.07,0,2.05.28,2.92.85.88.56,1.51,1.32,1.91,2.27h-2.15c-.32-.41-.73-.74-1.22-.99s-1-.37-1.52-.37c-.9,0-1.68.34-2.33,1.03-.66.69-.98,1.5-.98,2.45,0,1.01.33,1.87,1,2.57s1.48,1.05,2.45,1.05c.48,0,.95-.12,1.41-.35.46-.24.85-.55,1.15-.95h2.15Z"/><path class="cls-3" d="M239.7,5.51h1.89v4.16h3.68v-4.16h1.89v10.22h-1.89v-4.3h-3.68v4.3h-1.89V5.51Z"/><path class="cls-3" d="M162.23,23.93c.27-.44.65-.75,1.14-.94.25-.11.5-.16.78-.16.22,0,.44.04.65.12.46.14.78.42.94.86.08.19.12.38.12.57,0,.25-.07.48-.2.7-.76,1.33-1.65,2.69-2.66,4.05-.16.22-.25.46-.25.74v14.52c0,.49-.18.92-.53,1.29-.36.37-.79.55-1.29.55s-.93-.18-1.29-.55c-.36-.37-.53-.8-.53-1.29v-10.19c0-.05-.03-.09-.1-.12-.07-.03-.13-.01-.19.04-.65.65-1.27,1.24-1.84,1.76-.3.3-.65.45-1.06.45-.08,0-.18-.01-.29-.04-.49-.05-.91-.3-1.27-.74-.27-.35-.41-.75-.41-1.19,0-.08.01-.15.04-.2.05-.54.27-.98.65-1.31,2.97-2.51,5.5-5.48,7.57-8.92ZM158.38,58.21c-.38.41-.87.64-1.47.69h-.12c-.55,0-1.04-.15-1.47-.45-.41-.3-.61-.71-.61-1.23,0-.43.16-.82.49-1.14,1.5-1.5,2.69-3.4,3.56-5.69.19-.46.5-.8.94-1.02.25-.14.5-.2.78-.2.19,0,.38.03.57.08.46.16.8.48,1.02.94.14.25.21.51.21.78,0,.19-.04.38-.12.57-1.01,2.86-2.26,5.09-3.76,6.67ZM170.9,56.78h6.47c.68,0,1.16-.16,1.43-.49.27-.33.46-1.03.57-2.13.03-.41.23-.71.61-.92.38-.2.78-.22,1.19-.06.52.19.93.52,1.23.98.24.36.37.74.37,1.15,0,.11-.01.22-.04.33-.27,1.8-.77,3.02-1.49,3.66-.72.64-1.9.96-3.54.96h-7.2c-2.32,0-3.87-.33-4.64-1-.78-.67-1.16-1.92-1.16-3.74v-4.62c0-.52.19-.97.57-1.35.38-.38.84-.57,1.37-.57s.99.19,1.37.57c.38.38.57.83.57,1.35v4.62c0,.55.14.89.41,1.04.27.15.91.22,1.92.22ZM165.75,29.29c0-.49.18-.91.53-1.27s.78-.53,1.27-.53.91.18,1.27.53c.35.35.53.78.53,1.27v3.6c0,.08.03.14.1.16.07.03.13.01.18-.04,2.51-2.35,4.56-5.29,6.14-8.84.22-.52.57-.9,1.06-1.15.3-.16.61-.24.94-.24.19,0,.38.03.57.08.49.11.85.4,1.06.86.14.24.21.49.21.74,0,.22-.06.44-.17.65-.24.6-.49,1.14-.73,1.64-.06.08-.06.16,0,.24.05.08.12.12.2.12h11.01c.46,0,.87.16,1.21.49.34.33.51.73.51,1.21s-.17.89-.51,1.23c-.34.34-.74.51-1.21.51h-1.1c-.22,0-.36.09-.41.28-1.09,3.33-2.62,6.14-4.58,8.43-.19.22-.18.41.04.57,1.99,1.56,4.23,2.77,6.71,3.64.46.16.76.48.9.94.06.17.08.32.08.45,0,.3-.1.59-.29.86-.38.49-.85.85-1.39,1.06-.3.11-.59.16-.86.16s-.55-.05-.82-.16c-2.7-1.06-5.06-2.49-7.08-4.3-.19-.19-.39-.19-.61,0-1.72,1.34-3.74,2.51-6.05,3.52-.3.11-.6.16-.9.16-.25,0-.49-.04-.74-.12-.52-.16-.95-.48-1.31-.94-.27-.38-.35-.8-.24-1.25.11-.45.38-.76.82-.92,2.24-.85,4.2-1.91,5.89-3.19.22-.16.24-.35.08-.57-1.2-1.53-2.3-3.35-3.31-5.48-.03-.08-.09-.13-.19-.14-.09-.01-.17.02-.22.1-.27.35-.56.69-.86,1.02-.52.54-1.14.82-1.88.82s-1.43-.25-2-.74c-.06-.05-.11-.07-.16-.04-.06.03-.08.08-.08.16v7.36c0,.52-.18.95-.53,1.29-.36.34-.78.51-1.27.51s-.91-.17-1.27-.51-.53-.77-.53-1.29v-12.97ZM168.69,48.72c-.38-.19-.61-.5-.7-.92-.08-.42.01-.8.29-1.13.38-.38.83-.63,1.35-.74.16-.03.33-.04.49-.04.33,0,.66.08.98.25,1.88.87,3.49,1.77,4.83,2.7.44.33.66.79.66,1.39,0,.46-.16.87-.49,1.23-.33.38-.76.59-1.31.61h-.08c-.49,0-.93-.15-1.31-.45-1.31-1.01-2.88-1.98-4.71-2.9ZM184.32,30.92c.06-.08.05-.16-.02-.25-.07-.08-.14-.12-.22-.12h-6.67c-.08,0-.15.03-.2.1-.06.07-.07.16-.04.27.96,2.13,2.11,4.05,3.48,5.77.19.22.37.23.53.04,1.33-1.69,2.39-3.63,3.15-5.81ZM182.56,51.18c-.3-.27-.45-.61-.45-1.02,0-.55.23-.94.69-1.19.41-.24.85-.37,1.31-.37h.25c.57.05,1.06.27,1.47.65,2.18,2.04,3.96,4.06,5.32,6.06.22.33.33.67.33,1.02,0,.17-.03.33-.08.49-.14.54-.45.97-.94,1.27-.3.19-.63.29-.98.29-.16,0-.34-.03-.53-.08-.52-.14-.93-.45-1.23-.94-1.31-2.02-3.03-4.08-5.16-6.18Z"/><path class="cls-3" d="M218.98,54.41c0,.27.14.41.41.41h14.32c.52,0,.96.18,1.33.55.37.37.55.81.55,1.33s-.18.96-.55,1.33-.81.55-1.33.55h-33.47c-.52,0-.96-.18-1.33-.55-.37-.37-.55-.81-.55-1.33s.18-.96.55-1.33c.37-.37.81-.55,1.33-.55h14.32c.27,0,.41-.14.41-.41v-8.84c0-.27-.14-.41-.41-.41h-9.7c-.49,0-.92-.18-1.29-.55-.37-.37-.55-.8-.55-1.31s.18-.94.55-1.31c.37-.37.8-.55,1.29-.55h9.7c.27,0,.41-.14.41-.41v-7.53c0-.27-.14-.41-.41-.41h-8.47c-.27,0-.48.12-.61.37-.87,1.66-1.76,3.14-2.66,4.42-.33.46-.79.72-1.39.78-.11.03-.22.04-.33.04-.46,0-.9-.14-1.31-.41-.43-.3-.71-.71-.82-1.23-.03-.14-.04-.26-.04-.37,0-.38.14-.74.41-1.06,2.29-2.95,4.16-6.81,5.6-11.58.16-.57.5-1,1.02-1.27.33-.22.68-.33,1.06-.33.16,0,.33.03.49.08.57.11,1,.41,1.27.9.19.3.29.61.29.94,0,.19-.04.4-.12.61-.38,1.17-.85,2.47-1.39,3.89-.05.08-.05.16,0,.24.06.08.14.12.25.12h6.75c.27,0,.41-.14.41-.41v-5.36c0-.54.2-1.01.59-1.41.39-.4.86-.59,1.41-.59s1.02.2,1.41.59c.4.4.59.87.59,1.41v5.36c0,.27.14.41.41.41h12.27c.52,0,.97.19,1.35.57.38.38.57.83.57,1.35s-.19.97-.57,1.35c-.38.38-.83.57-1.35.57h-12.27c-.27,0-.41.14-.41.41v7.53c0,.27.14.41.41.41h10.76c.52,0,.96.18,1.33.55s.55.81.55,1.31-.18.94-.55,1.31c-.37.37-.81.55-1.33.55h-10.76c-.27,0-.41.14-.41.41v8.84Z"/><path class="cls-3" d="M253.6,40.87c.14-.03.27-.04.41-.04.3,0,.59.08.86.24.38.27.6.64.65,1.11.03.11.04.2.04.29,0,.41-.11.78-.33,1.1-.3.44-.7.72-1.19.86l-2.66.78c-.27.08-.41.26-.41.53v10.6c0,1.04-.12,1.83-.37,2.39-.25.56-.67.97-1.27,1.25-.82.41-2.17.64-4.05.7h-.08c-.49,0-.95-.16-1.39-.49-.41-.36-.71-.79-.9-1.31-.14-.41-.08-.8.16-1.17.25-.37.59-.55,1.02-.55.27.03.52.04.74.04.74,0,1.24-.01,1.51-.04.3,0,.51-.06.63-.18.12-.12.18-.33.18-.64v-9.49c0-.11-.04-.2-.12-.26-.08-.07-.16-.09-.24-.06-.93.27-1.72.49-2.37.65-.16.06-.34.08-.53.08-.33,0-.64-.08-.94-.25-.47-.27-.77-.67-.9-1.18-.03-.19-.04-.37-.04-.53,0-.33.08-.64.25-.94.27-.44.67-.72,1.19-.86.95-.22,2.06-.48,3.31-.78.27-.08.41-.26.41-.53v-7.57c0-.27-.14-.41-.41-.41h-2.95c-.49,0-.91-.18-1.27-.53-.36-.35-.53-.78-.53-1.29s.18-.92.53-1.27c.35-.34.78-.51,1.27-.51h2.95c.27,0,.41-.14.41-.41v-5.93c0-.52.18-.96.55-1.33.37-.37.82-.55,1.35-.55s.98.18,1.35.55.55.81.55,1.33v5.89c0,.27.14.41.41.41h2.17c.52,0,.95.18,1.31.53.35.35.53.78.53,1.29s-.18.94-.53,1.29c-.36.35-.79.53-1.31.53h-2.17c-.27,0-.41.14-.41.41v6.55c0,.11.04.19.12.25.08.05.18.07.29.04l2.21-.57ZM275.24,37.92c.41-.05.79-.01,1.15.12l.69.28c.35.14.62.38.8.74.18.36.2.71.06,1.06-1.61,4.88-4.11,8.97-7.49,12.27-.19.19-.18.37.04.53,2.34,1.72,5.01,3.07,7.98,4.05.46.14.75.44.86.9.05.13.08.27.08.41,0,.3-.11.57-.33.82-.35.52-.82.88-1.39,1.1-.3.11-.6.16-.9.16-.27,0-.54-.06-.82-.16-3.19-1.12-6.04-2.7-8.55-4.75-.19-.16-.4-.16-.61,0-2.7,1.94-5.76,3.5-9.16,4.71-.25.08-.49.12-.74.12-.3,0-.6-.07-.9-.2-.55-.24-.97-.63-1.27-1.14-.14-.25-.21-.51-.21-.78,0-.17.03-.34.08-.53.16-.46.48-.78.94-.94,3.05-.93,5.88-2.24,8.47-3.93.22-.16.23-.34.04-.53-2.48-2.84-4.49-6.19-6.01-10.06-.06-.14-.06-.27,0-.39.05-.12.15-.21.28-.27h-.12c-.41,0-.76-.15-1.04-.45-.29-.3-.43-.65-.43-1.06v-.28c0-.49.17-.91.51-1.25.34-.34.76-.51,1.25-.51h6.47c.27,0,.41-.14.41-.41v-4.91c0-.27-.14-.41-.41-.41h-7.2c-.49,0-.92-.18-1.27-.53s-.53-.78-.53-1.27.18-.91.53-1.27c.35-.35.78-.53,1.27-.53h7.2c.27,0,.41-.14.41-.41v-3.93c0-.54.18-1,.55-1.37s.82-.55,1.35-.55.99.18,1.37.55c.38.37.57.82.57,1.37v3.93c0,.27.14.41.41.41h7.49c.49,0,.9.18,1.25.53.34.36.51.78.51,1.27s-.17.91-.51,1.27c-.34.35-.76.53-1.25.53h-7.49c-.27,0-.41.14-.41.41v4.91c0,.27.14.41.41.41h5.44c.05,0,.11-.01.16-.04ZM273.24,41.89c.05-.08.05-.16,0-.25-.06-.08-.14-.12-.25-.12h-10.92c-.08,0-.15.04-.21.12-.05.08-.07.16-.04.25,1.31,3.05,3.04,5.71,5.2,7.98.19.19.38.19.57,0,2.43-2.32,4.31-4.98,5.65-7.98Z"/><path class="cls-3" d="M117.97,23.89c.89,0,1.64.35,2.27,1.04.63.7.94,1.53.94,2.52v28.97c0,1.01-.1,1.8-.31,2.37-.21.57-.56,1.01-1.05,1.31-.69.44-1.82.68-3.39.74h-.04c-.47,0-.89-.18-1.25-.53-.39-.36-.66-.82-.81-1.39-.1-.44-.03-.84.2-1.21.23-.37.56-.55.98-.55h1.77c.25-.03.42-.1.52-.2.1-.11.15-.31.15-.61v-9c0-.27-.12-.41-.37-.41h-4.39c-.25,0-.37.14-.37.41-.37,4.94-1.06,8.91-2.07,11.91-.15.44-.43.71-.85.82-.15.05-.28.08-.41.08-.27,0-.53-.08-.78-.25-.39-.25-.66-.6-.81-1.06-.1-.25-.15-.49-.15-.74,0-.22.04-.44.11-.65.84-2.51,1.39-5.31,1.66-8.41.27-3.1.41-6.5.41-10.21v-11.37c0-.98.31-1.82.92-2.52.61-.7,1.38-1.04,2.29-1.04h4.83ZM113.03,42.83c0,.11.03.2.09.29.06.08.14.12.24.12h4.21c.25,0,.37-.14.37-.41v-5.36c0-.27-.12-.41-.37-.41h-4.1c-.25,0-.37.14-.37.41v1.35c0,1.72-.03,3.06-.07,4.01ZM117.94,27.9c0-.27-.12-.41-.37-.41h-4.1c-.25,0-.37.14-.37.41v5.11c0,.27.12.41.37.41h4.1c.25,0,.37-.14.37-.41v-5.11Z"/><path class="cls-3" d="M145.51,34.16c.32.38.49.83.49,1.35s-.16.96-.49,1.33c-.32.37-.72.55-1.2.55h-7.44c-.1,0-.17.04-.23.12-.06.08-.08.18-.05.29.84,4.09,1.97,7.75,3.4,10.98,1.42,3.23,3.14,5.83,5.16,7.79.38.38.57.86.57,1.43,0,.46-.13.89-.4,1.27-.34.44-.74.68-1.22.74-.07.03-.16.04-.25.04-.38,0-.72-.15-1.01-.45-3.86-3.9-6.78-10.12-8.77-18.66-.02-.05-.06-.08-.11-.08s-.07.03-.07.08c-1.51,8.29-4.64,14.51-9.38,18.66-.34.27-.68.41-1.04.41h-.29c-.48-.08-.9-.33-1.26-.74-.31-.33-.47-.71-.47-1.15,0-.52.18-.93.54-1.23,4.77-4.04,7.77-10.41,9.02-19.11,0-.08-.03-.17-.09-.27-.06-.1-.14-.14-.23-.14h-6.54c-.46,0-.84-.18-1.17-.55-.32-.37-.49-.81-.49-1.33s.16-.97.49-1.35c.32-.38.71-.57,1.17-.57h6.93c.24,0,.37-.14.4-.41.17-2.18.26-5.13.29-8.84,0-.52.17-.97.52-1.35.35-.38.75-.57,1.22-.57s.87.19,1.2.57c.31.38.47.83.47,1.35,0,2.95-.11,5.89-.32,8.84-.02.11,0,.2.07.29.07.08.16.12.25.12h9.13c.48,0,.88.19,1.2.57ZM131.12,54.24c-.34-.3-.52-.67-.56-1.13-.04-.45.09-.84.38-1.17.34-.38.74-.6,1.22-.65.07-.03.16-.04.25-.04.36,0,.71.12,1.04.37,1.44,1.06,2.71,2.18,3.81,3.35.38.38.58.86.58,1.43s-.18,1.08-.54,1.51c-.34.38-.73.57-1.19.57h-.04c-.48-.03-.89-.23-1.22-.61-1.1-1.28-2.35-2.5-3.74-3.64Z"/></g></svg>