<?xml version="1.0" encoding="UTF-8"?><svg id="_圖層_2" xmlns="http://www.w3.org/2000/svg" xmlns:xlink="http://www.w3.org/1999/xlink" viewBox="0 0 434.83 395.9"><defs><style>.cls-1{fill:none;}.cls-2{fill:#c8d286;fill-rule:evenodd;}.cls-3{clip-path:url(#clippath);}</style><clipPath id="clippath"><rect class="cls-1" y="0" width="434.83" height="267.59"/></clipPath></defs><g id="_圖層_1-2"><g class="cls-3"><path class="cls-2" d="M184.86,108.02c5.25,1.37,8.39,6.73,7.02,11.98-1.37,5.25-6.73,8.39-11.98,7.02-5.25-1.37-8.39-6.73-7.02-11.98,1.37-5.25,6.73-8.39,11.98-7.02h0ZM80.36,219.33c18.68,4.87,29.88,23.96,25.01,42.65-4.87,18.68-23.96,29.88-42.65,25.01-18.68-4.87-29.88-23.96-25.01-42.65,4.87-18.68,23.96-29.88,42.65-25.01h0ZM363.3,326.56c2.21,7.48-2.06,15.33-9.54,17.54-7.48,2.21-15.33-2.07-17.54-9.54-2.21-7.48,2.07-15.33,9.54-17.54,7.48-2.21,15.33,2.07,17.54,9.54h0ZM133.95,372.43c-6.67,4.04-15.35,1.9-19.39-4.77-4.04-6.67-1.9-15.35,4.77-19.39,6.67-4.04,15.35-1.9,19.39,4.77,4.04,6.67,1.9,15.35-4.77,19.39h0ZM327.31,42.89c7.18-3.05,15.47.3,18.52,7.47,3.05,7.18-.3,15.47-7.47,18.52-7.18,3.05-15.47-.3-18.52-7.47-3.05-7.18.3-15.47,7.47-18.52h0ZM393.31,279.84c4.26,6.53,2.42,15.28-4.11,19.54-6.53,4.26-15.28,2.42-19.54-4.11-4.26-6.53-2.42-15.28,4.11-19.54,6.53-4.26,15.28-2.42,19.54,4.11h0ZM84.92,337.64c-7.59,1.77-15.18-2.95-16.96-10.54-1.77-7.59,2.95-15.19,10.55-16.96,7.59-1.77,15.18,2.95,16.96,10.54,1.77,7.59-2.95,15.19-10.54,16.96h0ZM28.41,220.86c6.98,3.48,15.46.63,18.93-6.35,3.48-6.98.63-15.46-6.35-18.93-6.98-3.48-15.46-.63-18.93,6.35-3.47,6.98-.63,15.46,6.35,18.93h0ZM125.58,33.5c.45-7.79,7.14-13.73,14.92-13.27,7.78.45,13.73,7.14,13.27,14.92-.45,7.78-7.13,13.73-14.92,13.27-7.78-.45-13.73-7.13-13.27-14.92h0ZM401.15,141.95c7.55,1.97,12.07,9.68,10.1,17.22-1.97,7.54-9.68,12.07-17.22,10.1-7.55-1.97-12.07-9.68-10.1-17.22,1.97-7.55,9.68-12.07,17.22-10.1h0ZM118.21,55.62c14.01,3.65,22.41,17.97,18.76,31.99-3.65,14.01-17.97,22.41-31.98,18.76-1.95-.51-3.79-1.22-5.5-2.11l-33.62,48.42c2.87,3.39,4.1,8.07,2.89,12.69-1.97,7.55-9.68,12.07-17.22,10.1-7.55-1.97-12.07-9.68-10.1-17.22,1.97-7.55,9.68-12.07,17.22-10.1.38.1.76.21,1.13.34l33.7-48.53c-6.64-6.36-9.74-16.04-7.25-25.57,3.65-14.01,17.97-22.41,31.99-18.76h0ZM217.06,51.65l-23.65-7.68c-3.25,3.69-8.41,5.45-13.49,4.13-7.19-1.87-11.49-9.22-9.62-16.4,1.87-7.19,9.22-11.49,16.4-9.62,7.18,1.87,11.49,9.22,9.62,16.4v.02s22.38,7.28,22.38,7.28c5.74-14.91,21.89-23.45,37.72-19.32,17.01,4.43,27.21,21.82,22.77,38.84-4.43,17.01-21.82,27.21-38.83,22.77-16.2-4.22-26.22-20.2-23.31-36.41h0ZM260.98,289.16l-21.69,42.19c12.55,7.9,19.13,23.29,15.19,38.4-4.87,18.68-23.96,29.88-42.65,25.01-18.68-4.87-29.88-23.96-25.01-42.65,4.87-18.68,23.96-29.88,42.65-25.01,2,.52,3.91,1.2,5.72,2.03l21.53-41.87c-3.02-2.33-4.52-6.32-3.5-10.25,1.37-5.25,6.73-8.39,11.98-7.03,5.25,1.37,8.39,6.73,7.02,11.98-1.3,5-6.23,8.09-11.24,7.19h0ZM324.21,101.47c-8.73,13.6-62.6,16.3-72.55,5.5-1.77-1.92-4.1-3.38-6.82-4.09-7.55-1.97-15.26,2.56-17.22,10.1-1.97,7.55,2.56,15.26,10.1,17.22,5.03,1.31,10.12-.26,13.55-3.68,12.43-12.43,62.3-17.16,72.68-.2,3.05,4.98,7.95,8.83,14.04,10.41,12.5,3.26,25.27-4.23,28.53-16.73,3.26-12.5-4.23-25.27-16.73-28.53-10.04-2.62-20.27,1.71-25.58,9.99h0ZM376.35,239.17c1.11.48,2.27.89,3.48,1.21,12.5,3.26,25.27-4.23,28.53-16.73,3.26-12.5-4.23-25.27-16.73-28.53-12.5-3.26-25.27,4.23-28.53,16.73-2.4,9.21,1.04,18.58,8.02,24.17l-28.18,50.56-.31-.09c-7.55-1.97-15.26,2.56-17.22,10.1-1.97,7.54,2.56,15.26,10.1,17.22,7.54,1.97,15.26-2.56,17.22-10.1,1.4-5.37-.49-10.83-4.42-14.24l28.04-50.31h0ZM248.92,209.89l-41.74,30.84c1.22,2.8,1.55,6.01.72,9.19-1.97,7.55-9.68,12.07-17.22,10.1-7.55-1.97-12.07-9.68-10.1-17.22,1.97-7.54,9.68-12.07,17.22-10.1,2.24.58,4.21,1.67,5.82,3.11l41.8-30.88c-4.49-7.7-6.05-17.11-3.62-26.42,4.87-18.68,23.96-29.88,42.65-25.01,18.68,4.87,29.88,23.96,25.01,42.65-4.87,18.68-23.96,29.88-42.65,25.01-7.26-1.89-13.39-5.94-17.89-11.27h0ZM157.17,200.36c9.95-.48,18.86-7.32,21.51-17.47,3.26-12.5-4.23-25.27-16.73-28.53s-25.27,4.23-28.53,16.73c-3.26,12.5,4.23,25.27,16.73,28.53.31.08.62.15.92.22l-11.27,69.98c-5.83.46-10.98,4.54-12.54,10.52-1.97,7.55,2.56,15.26,10.1,17.22,7.55,1.97,15.26-2.56,17.22-10.1,1.85-7.08-2.02-14.3-8.74-16.79l11.32-70.31h0ZM336.07,232.61c7.55,1.97,12.07,9.68,10.1,17.22-1.97,7.55-9.68,12.07-17.22,10.1-7.55-1.97-12.07-9.68-10.1-17.22,1.97-7.55,9.68-12.07,17.22-10.1h0ZM303.39,363.32c5.25,1.37,8.39,6.73,7.02,11.98-1.37,5.25-6.73,8.39-11.98,7.03-5.25-1.37-8.39-6.73-7.02-11.98,1.37-5.25,6.73-8.39,11.98-7.02Z"/></g></g></svg>